<svg width="43" height="43" viewBox="0 0 43 43" fill="none" xmlns="http://www.w3.org/2000/svg">
<g opacity="0.3">
<path d="M24.4792 36.368L23.4927 40.3056L22.5173 36.3688L22.5171 36.368C21.7339 33.2299 20.1452 30.3645 17.9156 28.0726C15.686 25.7806 12.8975 24.1462 9.84111 23.3423C9.84098 23.3423 9.84085 23.3422 9.84072 23.3422L5.94542 22.3082L9.8417 21.2739C9.84174 21.2739 9.84178 21.2739 9.84182 21.2739C12.8977 20.4636 15.6849 18.825 17.9138 16.5307C20.1425 14.2365 21.7316 11.3705 22.5171 8.23187L22.5173 8.23072L23.4927 4.29396L24.4792 8.23187C25.2647 11.3705 26.8537 14.2365 29.0825 16.5307C31.3114 18.825 34.0986 20.4636 37.1545 21.2739C37.1545 21.2739 37.1545 21.2739 37.1546 21.2739L41.0509 22.3082L37.1556 23.3422C37.1554 23.3422 37.1553 23.3423 37.1552 23.3423C34.0988 24.1462 31.3102 25.7806 29.0807 28.0726C26.8512 30.3645 25.2625 33.2297 24.4792 36.3677C24.4792 36.3678 24.4792 36.3679 24.4792 36.368Z" stroke="url(#paint0_linear_55_1296)"/>
<path d="M11.0616 6.72263L11.1461 6.74475L11.0616 6.76687L11.0592 6.7675C9.97444 7.05707 8.98674 7.64051 8.19843 8.45519C7.41072 9.26923 6.8509 10.2844 6.57545 11.3942L6.56032 11.453L6.54607 11.3958L6.54592 11.3952C6.26752 10.2834 5.7043 9.26715 4.9132 8.45283C4.12203 7.63843 3.13178 7.05571 2.04478 6.76731L2.04415 6.76714L1.95931 6.74475L2.04415 6.72236L2.04478 6.72219C3.13175 6.43379 4.12201 5.85119 4.9132 5.03677C5.70431 4.22245 6.26752 3.20607 6.54592 2.09426L6.54607 2.09369L6.56032 2.03651L6.57545 2.09532C6.8509 3.2051 7.41073 4.22027 8.19843 5.03431C8.98674 5.84899 9.97444 6.43243 11.0592 6.72201L11.0616 6.72263Z" stroke="url(#paint1_linear_55_1296)"/>
</g>
<defs>
<linearGradient id="paint0_linear_55_1296" x1="20.4125" y1="13.7821" x2="46.3905" y2="38.8703" gradientUnits="userSpaceOnUse">
<stop stop-color="#1F67E7"/>
<stop offset="1" stop-color="#1AD7BE"/>
</linearGradient>
<linearGradient id="paint1_linear_55_1296" x1="5.5225" y1="3.88286" x2="14.2513" y2="12.3232" gradientUnits="userSpaceOnUse">
<stop stop-color="#1F67E7"/>
<stop offset="1" stop-color="#1AD7BE"/>
</linearGradient>
</defs>
</svg>
