<svg width="17" height="19" viewBox="0 0 17 19" fill="none" xmlns="http://www.w3.org/2000/svg">
<g clip-path="url(#clip0_55_1287)">
<path d="M8.44812 5.23257C6.0505 5.23257 4.11657 7.13628 4.11657 9.49643C4.11657 11.8566 6.0505 13.7603 8.44812 13.7603C10.8457 13.7603 12.7797 11.8566 12.7797 9.49643C12.7797 7.13628 10.8457 5.23257 8.44812 5.23257ZM8.44812 12.2685C6.89871 12.2685 5.63204 11.0253 5.63204 9.49643C5.63204 7.96753 6.89494 6.72436 8.44812 6.72436C10.0013 6.72436 11.2642 7.96753 11.2642 9.49643C11.2642 11.0253 9.99752 12.2685 8.44812 12.2685ZM13.9672 5.05815C13.9672 5.61108 13.5148 6.05268 12.9568 6.05268C12.3951 6.05268 11.9465 5.60737 11.9465 5.05815C11.9465 4.50893 12.3989 4.06362 12.9568 4.06362C13.5148 4.06362 13.9672 4.50893 13.9672 5.05815ZM16.836 6.06753C16.7719 4.7353 16.4628 3.55522 15.4713 2.58296C14.4836 1.61069 13.2848 1.3064 11.9315 1.2396C10.5366 1.16167 6.35585 1.16167 4.96101 1.2396C3.61141 1.30269 2.4126 1.60698 1.42113 2.57925C0.42966 3.55151 0.124303 4.73159 0.0564453 6.06382C-0.0227214 7.43686 -0.0227214 11.5523 0.0564453 12.9253C0.120533 14.2576 0.42966 15.4376 1.42113 16.4099C2.4126 17.3822 3.60764 17.6865 4.96101 17.7533C6.35585 17.8312 10.5366 17.8312 11.9315 17.7533C13.2848 17.6902 14.4836 17.3859 15.4713 16.4099C16.459 15.4376 16.7682 14.2576 16.836 12.9253C16.9152 11.5523 16.9152 7.44057 16.836 6.06753ZM15.034 14.3986C14.74 15.1259 14.1707 15.6863 13.4281 15.9794C12.316 16.4136 9.67708 16.3134 8.44812 16.3134C7.21915 16.3134 4.57649 16.4099 3.46815 15.9794C2.72926 15.69 2.16002 15.1296 1.8622 14.3986C1.42113 13.3039 1.52291 10.7062 1.52291 9.49643C1.52291 8.28667 1.4249 5.6853 1.8622 4.59429C2.15625 3.86694 2.72549 3.30659 3.46815 3.01343C4.58026 2.57925 7.21915 2.67944 8.44812 2.67944C9.67708 2.67944 12.3197 2.58296 13.4281 3.01343C14.167 3.30288 14.7362 3.86323 15.034 4.59429C15.4751 5.68901 15.3733 8.28667 15.3733 9.49643C15.3733 10.7062 15.4751 13.3076 15.034 14.3986Z" fill="#3E4757"/>
</g>
<defs>
<clipPath id="clip0_55_1287">
<rect width="16.8889" height="19" fill="white"/>
</clipPath>
</defs>
</svg>
