<svg width="20" height="19" viewBox="0 0 20 19" fill="none" xmlns="http://www.w3.org/2000/svg">
<path fill-rule="evenodd" clip-rule="evenodd" d="M4.84701 0.989746C4.26961 0.989746 3.71586 1.21912 3.30757 1.6274C2.89929 2.03568 2.66992 2.58943 2.66992 3.16683C2.66992 3.74423 2.89929 4.29798 3.30757 4.70626C3.71586 5.11454 4.26961 5.34391 4.84701 5.34391C5.4244 5.34391 5.97815 5.11454 6.38644 4.70626C6.79472 4.29798 7.02409 3.74423 7.02409 3.16683C7.02409 2.58943 6.79472 2.03568 6.38644 1.6274C5.97815 1.21912 5.4244 0.989746 4.84701 0.989746ZM3.85742 3.16683C3.85742 2.90438 3.96168 2.65267 4.14726 2.46709C4.33285 2.28151 4.58455 2.17725 4.84701 2.17725C5.10946 2.17725 5.36116 2.28151 5.54675 2.46709C5.73233 2.65267 5.83659 2.90438 5.83659 3.16683C5.83659 3.42928 5.73233 3.68099 5.54675 3.86657C5.36116 4.05215 5.10946 4.15641 4.84701 4.15641C4.58455 4.15641 4.33285 4.05215 4.14726 3.86657C3.96168 3.68099 3.85742 3.42928 3.85742 3.16683ZM2.66992 6.3335C2.66992 6.17602 2.73248 6.025 2.84383 5.91365C2.95518 5.8023 3.1062 5.73975 3.26367 5.73975H6.43034C6.58781 5.73975 6.73883 5.8023 6.85018 5.91365C6.96153 6.025 7.02409 6.17602 7.02409 6.3335V16.6252C7.02409 16.7826 6.96153 16.9337 6.85018 17.045C6.73883 17.1564 6.58781 17.2189 6.43034 17.2189H3.26367C3.1062 17.2189 2.95518 17.1564 2.84383 17.045C2.73248 16.9337 2.66992 16.7826 2.66992 16.6252V6.3335ZM3.85742 6.92725V16.0314H5.83659V6.92725H3.85742ZM8.21159 6.3335C8.21159 6.17602 8.27415 6.025 8.3855 5.91365C8.49684 5.8023 8.64787 5.73975 8.80534 5.73975H11.972C12.1295 5.73975 12.2805 5.8023 12.3919 5.91365C12.5032 6.025 12.5658 6.17602 12.5658 6.3335V6.67708L12.9101 6.52904C13.5039 6.27539 14.1338 6.11645 14.7769 6.058C16.9738 5.8585 18.8991 7.58433 18.8991 9.801V16.6252C18.8991 16.7826 18.8365 16.9337 18.7252 17.045C18.6138 17.1564 18.4628 17.2189 18.3053 17.2189H15.1387C14.9812 17.2189 14.8302 17.1564 14.7188 17.045C14.6075 16.9337 14.5449 16.7826 14.5449 16.6252V11.0835C14.5449 10.821 14.4407 10.5693 14.2551 10.3838C14.0695 10.1982 13.8178 10.0939 13.5553 10.0939C13.2929 10.0939 13.0412 10.1982 12.8556 10.3838C12.67 10.5693 12.5658 10.821 12.5658 11.0835V16.6252C12.5658 16.7826 12.5032 16.9337 12.3919 17.045C12.2805 17.1564 12.1295 17.2189 11.972 17.2189H8.80534C8.64787 17.2189 8.49684 17.1564 8.3855 17.045C8.27415 16.9337 8.21159 16.7826 8.21159 16.6252V6.3335ZM9.39909 6.92725V16.0314H11.3783V11.0835C11.3783 10.5061 11.6076 9.95235 12.0159 9.54407C12.4242 9.13579 12.9779 8.90641 13.5553 8.90641C14.1327 8.90641 14.6865 9.13579 15.0948 9.54407C15.5031 9.95235 15.7324 10.5061 15.7324 11.0835V16.0314H17.7116V9.801C17.7116 8.29366 16.3966 7.103 14.8853 7.24075C14.3661 7.28785 13.8575 7.41608 13.378 7.62075L12.2063 8.12346C12.116 8.16227 12.0174 8.17803 11.9194 8.16932C11.8214 8.1606 11.7272 8.12769 11.6451 8.07353C11.563 8.01937 11.4956 7.94567 11.449 7.85904C11.4025 7.7724 11.3781 7.67556 11.3783 7.57721V6.92725H9.39909Z" fill="#3E4757"/>
</svg>
