<svg width="259" height="14" viewBox="0 0 259 14" fill="none" xmlns="http://www.w3.org/2000/svg">
<path d="M5.3188 11.21C4.5908 11.21 3.90946 11.0747 3.2748 10.804C2.64013 10.5333 2.08013 10.16 1.5948 9.684C1.1188 9.19867 0.745464 8.63867 0.474797 8.004C0.20413 7.36933 0.0687969 6.688 0.0687969 5.96C0.0687969 5.232 0.20413 4.55067 0.474797 3.916C0.745464 3.28133 1.1188 2.726 1.5948 2.25C2.08013 1.76467 2.64013 1.38667 3.2748 1.116C3.90946 0.845333 4.5908 0.71 5.3188 0.71C6.0468 0.71 6.72813 0.845333 7.3628 1.116C7.99746 1.38667 8.5528 1.76467 9.0288 2.25C9.51413 2.726 9.89213 3.28133 10.1628 3.916C10.4335 4.55067 10.5688 5.232 10.5688 5.96C10.5688 6.688 10.4335 7.36933 10.1628 8.004C9.89213 8.63867 9.51413 9.19867 9.0288 9.684C8.5528 10.16 7.99746 10.5333 7.3628 10.804C6.72813 11.0747 6.0468 11.21 5.3188 11.21ZM5.3188 10.552C5.95346 10.552 6.54613 10.4353 7.0968 10.202C7.64746 9.95933 8.1328 9.628 8.5528 9.208C8.9728 8.77867 9.29946 8.28867 9.5328 7.738C9.76613 7.178 9.8828 6.58533 9.8828 5.96C9.8828 5.33467 9.76613 4.74667 9.5328 4.196C9.29946 3.636 8.9728 3.146 8.5528 2.726C8.1328 2.29667 7.64746 1.96533 7.0968 1.732C6.54613 1.48933 5.95346 1.368 5.3188 1.368C4.69346 1.368 4.10546 1.48933 3.5548 1.732C3.00413 1.96533 2.5188 2.29667 2.0988 2.726C1.6788 3.146 1.34746 3.636 1.1048 4.196C0.871464 4.74667 0.754797 5.33467 0.754797 5.96C0.754797 6.58533 0.871464 7.178 1.1048 7.738C1.34746 8.28867 1.6788 8.77867 2.0988 9.208C2.5188 9.628 3.00413 9.95933 3.5548 10.202C4.10546 10.4353 4.69346 10.552 5.3188 10.552ZM5.3748 9.04C4.8148 9.04 4.31546 8.90933 3.8768 8.648C3.43813 8.37733 3.0928 8.00867 2.8408 7.542C2.59813 7.07533 2.4768 6.54333 2.4768 5.946C2.4768 5.34867 2.59813 4.82133 2.8408 4.364C3.0928 3.90667 3.43813 3.54733 3.8768 3.286C4.31546 3.01533 4.8148 2.88 5.3748 2.88C6.06546 2.88 6.6488 3.08533 7.1248 3.496C7.6008 3.90667 7.88546 4.448 7.9788 5.12H7.0968C7.03146 4.66267 6.8448 4.30333 6.5368 4.042C6.2288 3.78067 5.84146 3.65 5.3748 3.65C4.77746 3.65 4.2968 3.86467 3.9328 4.294C3.5688 4.714 3.3868 5.26467 3.3868 5.946C3.3868 6.63667 3.5688 7.19667 3.9328 7.626C4.30613 8.05533 4.7868 8.27 5.3748 8.27C5.84146 8.27 6.2288 8.13933 6.5368 7.878C6.8448 7.60733 7.03613 7.248 7.1108 6.8H7.9928C7.89946 7.48133 7.6148 8.02733 7.1388 8.438C6.6628 8.83933 6.0748 9.04 5.3748 9.04ZM14.4353 11V9.782C15.4153 8.97933 16.232 8.27933 16.8853 7.682C17.548 7.08467 18.0753 6.55267 18.4673 6.086C18.8593 5.61933 19.1393 5.19467 19.3073 4.812C19.4753 4.42933 19.5593 4.04667 19.5593 3.664C19.5593 3.14133 19.4053 2.73533 19.0973 2.446C18.7986 2.14733 18.3833 1.998 17.8513 1.998C17.3006 1.998 16.8526 2.16133 16.5073 2.488C16.162 2.80533 15.9473 3.258 15.8633 3.846H14.3513C14.4446 2.922 14.804 2.18 15.4293 1.62C16.064 1.06 16.8993 0.78 17.9353 0.78C18.9246 0.78 19.704 1.04133 20.2733 1.564C20.852 2.08667 21.1413 2.80533 21.1413 3.72C21.1413 4.18667 21.0526 4.65333 20.8753 5.12C20.7073 5.57733 20.4273 6.058 20.0353 6.562C19.6433 7.05667 19.116 7.60733 18.4533 8.214C17.8 8.81133 16.988 9.49267 16.0173 10.258L15.6673 9.782H21.3233V11H14.4353ZM26.4833 11.14C25.6713 11.14 24.9573 10.9207 24.3413 10.482C23.7253 10.034 23.2446 9.418 22.8993 8.634C22.554 7.84067 22.3813 6.93533 22.3813 5.918C22.3813 4.90067 22.554 4.00933 22.8993 3.244C23.2446 2.46933 23.7253 1.86733 24.3413 1.438C24.9573 0.999333 25.6713 0.78 26.4833 0.78C27.2953 0.78 28.0046 0.999333 28.6113 1.438C29.2273 1.86733 29.708 2.46933 30.0533 3.244C30.3986 4.00933 30.5713 4.90067 30.5713 5.918C30.5713 6.94467 30.3986 7.85 30.0533 8.634C29.708 9.418 29.2273 10.034 28.6113 10.482C27.9953 10.9207 27.286 11.14 26.4833 11.14ZM26.4833 9.866C27.0153 9.866 27.468 9.70267 27.8413 9.376C28.2146 9.04 28.4946 8.578 28.6813 7.99C28.8773 7.39267 28.9753 6.69733 28.9753 5.904C28.9753 5.12 28.8773 4.43867 28.6813 3.86C28.4946 3.28133 28.2146 2.838 27.8413 2.53C27.4773 2.21267 27.0246 2.054 26.4833 2.054C25.9326 2.054 25.4706 2.21267 25.0973 2.53C24.7333 2.84733 24.4533 3.29533 24.2573 3.874C24.0706 4.44333 23.9773 5.12 23.9773 5.904C23.9773 6.69733 24.0753 7.39267 24.2713 7.99C24.4673 8.58733 24.7473 9.04933 25.1113 9.376C25.4846 9.70267 25.942 9.866 26.4833 9.866ZM31.5798 11V9.782C32.5598 8.97933 33.3765 8.27933 34.0298 7.682C34.6925 7.08467 35.2198 6.55267 35.6118 6.086C36.0038 5.61933 36.2838 5.19467 36.4518 4.812C36.6198 4.42933 36.7038 4.04667 36.7038 3.664C36.7038 3.14133 36.5498 2.73533 36.2418 2.446C35.9432 2.14733 35.5278 1.998 34.9958 1.998C34.4452 1.998 33.9972 2.16133 33.6518 2.488C33.3065 2.80533 33.0918 3.258 33.0078 3.846H31.4958C31.5892 2.922 31.9485 2.18 32.5738 1.62C33.2085 1.06 34.0438 0.78 35.0798 0.78C36.0692 0.78 36.8485 1.04133 37.4178 1.564C37.9965 2.08667 38.2858 2.80533 38.2858 3.72C38.2858 4.18667 38.1972 4.65333 38.0198 5.12C37.8518 5.57733 37.5718 6.058 37.1798 6.562C36.7878 7.05667 36.2605 7.60733 35.5978 8.214C34.9445 8.81133 34.1325 9.49267 33.1618 10.258L32.8118 9.782H38.4678V11H31.5798ZM43.8767 11V8.34L43.9327 8.06V2.306L44.4647 2.46L40.2647 8.144L39.6907 7.598H46.6067V8.816H38.9067V7.682L43.9327 0.92H45.4027V11H43.8767ZM50.7603 11V0.92H54.7363C55.4643 0.92 56.0849 1.04133 56.5983 1.284C57.1116 1.51733 57.5083 1.84867 57.7883 2.278C58.0683 2.698 58.2083 3.19733 58.2083 3.776C58.2083 4.35467 58.0683 4.85867 57.7883 5.288C57.5083 5.71733 57.1116 6.05333 56.5983 6.296C56.0849 6.53867 55.4643 6.66 54.7363 6.66H51.8803V5.456H54.6943C55.3663 5.456 55.8749 5.31133 56.2203 5.022C56.5749 4.72333 56.7523 4.31267 56.7523 3.79C56.7523 3.26733 56.5796 2.86133 56.2343 2.572C55.8889 2.28267 55.3756 2.138 54.6943 2.138H52.2443V11H50.7603ZM56.5843 11L51.6703 5.918H53.4763L58.7123 11H56.5843ZM62.6586 11.14C61.94 11.14 61.3053 10.9813 60.7546 10.664C60.2133 10.3467 59.7886 9.908 59.4806 9.348C59.1726 8.788 59.0186 8.144 59.0186 7.416C59.0186 6.67867 59.168 6.03467 59.4666 5.484C59.7746 4.924 60.204 4.49 60.7546 4.182C61.3053 3.874 61.9353 3.72 62.6446 3.72C63.3353 3.72 63.9326 3.86933 64.4366 4.168C64.95 4.45733 65.342 4.86333 65.6126 5.386C65.8926 5.90867 66.0326 6.52933 66.0326 7.248C66.0326 7.36 66.028 7.46733 66.0186 7.57C66.0186 7.66333 66.0093 7.76133 65.9906 7.864H59.9986V6.772H64.9686L64.6046 7.206C64.6046 6.44067 64.432 5.85733 64.0866 5.456C63.7413 5.05467 63.2606 4.854 62.6446 4.854C61.982 4.854 61.4546 5.08267 61.0626 5.54C60.68 5.988 60.4886 6.61333 60.4886 7.416C60.4886 8.228 60.68 8.86267 61.0626 9.32C61.4546 9.77733 61.996 10.006 62.6866 10.006C63.1066 10.006 63.4706 9.922 63.7786 9.754C64.0866 9.57667 64.3153 9.32 64.4646 8.984H65.8366C65.6033 9.656 65.2066 10.1833 64.6466 10.566C64.096 10.9487 63.4333 11.14 62.6586 11.14ZM70.531 11.14C69.8497 11.14 69.243 10.9813 68.711 10.664C68.179 10.3373 67.759 9.894 67.451 9.334C67.1523 8.774 67.003 8.13467 67.003 7.416C67.003 6.69733 67.1523 6.06267 67.451 5.512C67.759 4.952 68.179 4.51333 68.711 4.196C69.243 3.87867 69.845 3.72 70.517 3.72C71.0863 3.72 71.595 3.82733 72.043 4.042C72.491 4.25667 72.8597 4.55533 73.149 4.938C73.4383 5.32067 73.625 5.77333 73.709 6.296H72.337C72.2437 5.876 72.0383 5.54 71.721 5.288C71.413 5.036 71.021 4.91 70.545 4.91C70.1343 4.91 69.775 5.01267 69.467 5.218C69.159 5.42333 68.921 5.71267 68.753 6.086C68.585 6.45933 68.501 6.90267 68.501 7.416C68.501 7.92 68.585 8.36333 68.753 8.746C68.921 9.12867 69.159 9.42733 69.467 9.642C69.775 9.84733 70.139 9.95 70.559 9.95C71.0163 9.95 71.4037 9.82867 71.721 9.586C72.0477 9.334 72.2577 8.998 72.351 8.578H73.723C73.6297 9.09133 73.4337 9.53933 73.135 9.922C72.8457 10.3047 72.477 10.6033 72.029 10.818C71.581 11.0327 71.0817 11.14 70.531 11.14ZM75.1646 11V3.86H76.5506V5.638H76.6206V11H75.1646ZM76.6206 7.276L76.4386 5.582C76.6066 4.97533 76.8959 4.51333 77.3066 4.196C77.7172 3.87867 78.2072 3.72 78.7766 3.72C78.9912 3.72 79.1406 3.73867 79.2246 3.776V5.148C79.1779 5.12933 79.1126 5.12 79.0286 5.12C78.9446 5.11067 78.8419 5.106 78.7206 5.106C78.0206 5.106 77.4932 5.288 77.1386 5.652C76.7932 6.016 76.6206 6.55733 76.6206 7.276ZM82.7523 11.14C82.2763 11.14 81.8563 11.042 81.4923 10.846C81.1283 10.6407 80.8436 10.3607 80.6383 10.006C80.4423 9.65133 80.3443 9.24533 80.3443 8.788V3.86H81.8003V8.452C81.8003 8.94667 81.9216 9.31533 82.1643 9.558C82.4069 9.80067 82.7523 9.922 83.2003 9.922C83.6016 9.922 83.9563 9.82867 84.2643 9.642C84.5816 9.45533 84.8289 9.19867 85.0063 8.872C85.1929 8.536 85.2863 8.14867 85.2863 7.71L85.4683 9.418C85.2349 9.94067 84.8756 10.3607 84.3903 10.678C83.9143 10.986 83.3683 11.14 82.7523 11.14ZM85.3423 11V9.32H85.2863V3.86H86.7283V11H85.3423ZM88.6314 11V3.86H90.0874V11H88.6314ZM88.5614 2.46V0.821999H90.1714V2.46H88.5614ZM95.1147 11.14C94.284 11.14 93.6727 10.9487 93.2807 10.566C92.898 10.174 92.7067 9.6 92.7067 8.844V2.222L94.1487 1.676V8.858C94.1487 9.23133 94.2467 9.50667 94.4427 9.684C94.6387 9.86133 94.956 9.95 95.3947 9.95C95.5627 9.95 95.712 9.936 95.8427 9.908C95.9734 9.88 96.0854 9.84733 96.1787 9.81V10.986C96.076 11.0327 95.9314 11.07 95.7447 11.098C95.558 11.126 95.348 11.14 95.1147 11.14ZM91.2787 5.022V3.86H96.1787V5.022H91.2787ZM100.476 11.14C99.7477 11.14 99.1084 10.9813 98.5577 10.664C98.007 10.3373 97.5777 9.894 97.2697 9.334C96.9617 8.76467 96.8077 8.12067 96.8077 7.402C96.8077 6.674 96.9617 6.03467 97.2697 5.484C97.587 4.93333 98.0164 4.504 98.5577 4.196C99.1084 3.87867 99.7477 3.72 100.476 3.72C101.213 3.72 101.857 3.87867 102.408 4.196C102.958 4.504 103.383 4.93333 103.682 5.484C103.99 6.03467 104.144 6.674 104.144 7.402C104.144 8.12067 103.99 8.76467 103.682 9.334C103.383 9.894 102.958 10.3373 102.408 10.664C101.857 10.9813 101.213 11.14 100.476 11.14ZM100.476 9.95C100.914 9.95 101.292 9.84267 101.61 9.628C101.936 9.41333 102.193 9.11467 102.38 8.732C102.566 8.34933 102.66 7.90133 102.66 7.388C102.66 6.62267 102.454 6.02067 102.044 5.582C101.642 5.134 101.12 4.91 100.476 4.91C99.841 4.91 99.3184 5.134 98.9077 5.582C98.5064 6.03 98.3057 6.632 98.3057 7.388C98.3057 7.90133 98.3944 8.34933 98.5717 8.732C98.7584 9.11467 99.015 9.41333 99.3417 9.628C99.6777 9.84267 100.056 9.95 100.476 9.95ZM107.827 11L111.621 0.92H112.909L109.283 11H107.827ZM115.625 11L111.999 0.92H113.357L117.165 11H115.625ZM109.745 6.982H115.149V8.214H109.745V6.982ZM118.655 11V0.92H120.139V11H118.655ZM124.93 11V9.264H126.652V11H124.93ZM130.85 11L134.644 0.92H135.932L132.306 11H130.85ZM138.648 11L135.022 0.92H136.38L140.188 11H138.648ZM132.768 6.982H138.172V8.214H132.768V6.982ZM141.665 11V0.92H143.121V11H141.665ZM145.165 11V0.92H146.621V11H145.165ZM151.426 11V0.92H155.402C156.13 0.92 156.751 1.04133 157.264 1.284C157.778 1.51733 158.174 1.84867 158.454 2.278C158.734 2.698 158.874 3.19733 158.874 3.776C158.874 4.35467 158.734 4.85867 158.454 5.288C158.174 5.71733 157.778 6.05333 157.264 6.296C156.751 6.53867 156.13 6.66 155.402 6.66H152.546V5.456H155.36C156.032 5.456 156.541 5.31133 156.886 5.022C157.241 4.72333 157.418 4.31267 157.418 3.79C157.418 3.26733 157.246 2.86133 156.9 2.572C156.555 2.28267 156.042 2.138 155.36 2.138H152.91V11H151.426ZM157.25 11L152.336 5.918H154.142L159.378 11H157.25ZM160.586 11V3.86H162.042V11H160.586ZM160.516 2.46V0.821999H162.126V2.46H160.516ZM167.041 14.01C166.145 14.01 165.403 13.8047 164.815 13.394C164.237 12.9927 163.887 12.456 163.765 11.784H165.137C165.231 12.092 165.436 12.3347 165.753 12.512C166.08 12.6893 166.514 12.778 167.055 12.778C167.755 12.778 168.278 12.6053 168.623 12.26C168.969 11.9147 169.141 11.4013 169.141 10.72V9.18L169.267 9.208C169.127 9.74933 168.824 10.1787 168.357 10.496C167.891 10.804 167.331 10.958 166.677 10.958C166.052 10.958 165.501 10.8087 165.025 10.51C164.549 10.2113 164.181 9.796 163.919 9.264C163.658 8.72267 163.527 8.09267 163.527 7.374C163.527 6.646 163.663 6.00667 163.933 5.456C164.204 4.90533 164.582 4.48067 165.067 4.182C165.562 3.88333 166.136 3.734 166.789 3.734C167.461 3.734 168.017 3.89733 168.455 4.224C168.903 4.54133 169.188 4.994 169.309 5.582L169.197 5.596V3.86H170.583V10.706C170.583 11.7327 170.266 12.54 169.631 13.128C169.006 13.716 168.143 14.01 167.041 14.01ZM167.111 9.782C167.737 9.782 168.236 9.56267 168.609 9.124C168.992 8.68533 169.183 8.08333 169.183 7.318C169.183 6.57133 168.992 5.98333 168.609 5.554C168.236 5.12467 167.732 4.91 167.097 4.91C166.463 4.91 165.959 5.12933 165.585 5.568C165.212 5.99733 165.025 6.59467 165.025 7.36C165.025 8.10667 165.212 8.69933 165.585 9.138C165.968 9.56733 166.477 9.782 167.111 9.782ZM172.631 11V0.92H174.087V11H172.631ZM177.699 11V6.408C177.699 5.91333 177.573 5.54467 177.321 5.302C177.079 5.05933 176.715 4.938 176.229 4.938C175.809 4.938 175.436 5.03133 175.109 5.218C174.792 5.40467 174.54 5.66133 174.353 5.988C174.176 6.31467 174.087 6.702 174.087 7.15L173.905 5.442C174.139 4.91 174.498 4.49 174.983 4.182C175.469 3.874 176.033 3.72 176.677 3.72C177.443 3.72 178.045 3.93467 178.483 4.364C178.922 4.79333 179.141 5.36267 179.141 6.072V11H177.699ZM183.927 11.14C183.097 11.14 182.485 10.9487 182.093 10.566C181.711 10.174 181.519 9.6 181.519 8.844V2.222L182.961 1.676V8.858C182.961 9.23133 183.059 9.50667 183.255 9.684C183.451 9.86133 183.769 9.95 184.207 9.95C184.375 9.95 184.525 9.936 184.655 9.908C184.786 9.88 184.898 9.84733 184.991 9.81V10.986C184.889 11.0327 184.744 11.07 184.557 11.098C184.371 11.126 184.161 11.14 183.927 11.14ZM180.091 5.022V3.86H184.991V5.022H180.091ZM188.907 11.14C187.973 11.14 187.231 10.9347 186.681 10.524C186.13 10.1133 185.817 9.53467 185.743 8.788H187.087C187.152 9.19867 187.339 9.516 187.647 9.74C187.964 9.95467 188.393 10.062 188.935 10.062C189.411 10.062 189.775 9.978 190.027 9.81C190.279 9.642 190.405 9.404 190.405 9.096C190.405 8.872 190.33 8.68533 190.181 8.536C190.041 8.37733 189.761 8.24667 189.341 8.144L188.193 7.878C187.474 7.70067 186.937 7.43933 186.583 7.094C186.237 6.73933 186.065 6.30533 186.065 5.792C186.065 5.148 186.303 4.644 186.779 4.28C187.264 3.90667 187.927 3.72 188.767 3.72C189.597 3.72 190.265 3.90667 190.769 4.28C191.282 4.65333 191.571 5.176 191.637 5.848H190.293C190.237 5.512 190.073 5.25533 189.803 5.078C189.541 4.89133 189.182 4.798 188.725 4.798C188.295 4.798 187.964 4.87733 187.731 5.036C187.507 5.18533 187.395 5.39533 187.395 5.666C187.395 5.89 187.479 6.07667 187.647 6.226C187.824 6.37533 188.113 6.50133 188.515 6.604L189.691 6.898C190.372 7.066 190.885 7.34133 191.231 7.724C191.576 8.09733 191.749 8.55 191.749 9.082C191.749 9.726 191.497 10.23 190.993 10.594C190.498 10.958 189.803 11.14 188.907 11.14ZM195.86 11V0.92H199.836C200.564 0.92 201.185 1.04133 201.698 1.284C202.211 1.51733 202.608 1.84867 202.888 2.278C203.168 2.698 203.308 3.19733 203.308 3.776C203.308 4.35467 203.168 4.85867 202.888 5.288C202.608 5.71733 202.211 6.05333 201.698 6.296C201.185 6.53867 200.564 6.66 199.836 6.66H196.98V5.456H199.794C200.466 5.456 200.975 5.31133 201.32 5.022C201.675 4.72333 201.852 4.31267 201.852 3.79C201.852 3.26733 201.679 2.86133 201.334 2.572C200.989 2.28267 200.475 2.138 199.794 2.138H197.344V11H195.86ZM201.684 11L196.77 5.918H198.576L203.812 11H201.684ZM207.758 11.14C207.04 11.14 206.405 10.9813 205.854 10.664C205.313 10.3467 204.888 9.908 204.58 9.348C204.272 8.788 204.118 8.144 204.118 7.416C204.118 6.67867 204.268 6.03467 204.566 5.484C204.874 4.924 205.304 4.49 205.854 4.182C206.405 3.874 207.035 3.72 207.744 3.72C208.435 3.72 209.032 3.86933 209.536 4.168C210.05 4.45733 210.442 4.86333 210.712 5.386C210.992 5.90867 211.132 6.52933 211.132 7.248C211.132 7.36 211.128 7.46733 211.118 7.57C211.118 7.66333 211.109 7.76133 211.09 7.864H205.098V6.772H210.068L209.704 7.206C209.704 6.44067 209.532 5.85733 209.186 5.456C208.841 5.05467 208.36 4.854 207.744 4.854C207.082 4.854 206.554 5.08267 206.162 5.54C205.78 5.988 205.588 6.61333 205.588 7.416C205.588 8.228 205.78 8.86267 206.162 9.32C206.554 9.77733 207.096 10.006 207.786 10.006C208.206 10.006 208.57 9.922 208.878 9.754C209.186 9.57667 209.415 9.32 209.564 8.984H210.936C210.703 9.656 210.306 10.1833 209.746 10.566C209.196 10.9487 208.533 11.14 207.758 11.14ZM215.225 11.14C214.292 11.14 213.55 10.9347 212.999 10.524C212.448 10.1133 212.136 9.53467 212.061 8.788H213.405C213.47 9.19867 213.657 9.516 213.965 9.74C214.282 9.95467 214.712 10.062 215.253 10.062C215.729 10.062 216.093 9.978 216.345 9.81C216.597 9.642 216.723 9.404 216.723 9.096C216.723 8.872 216.648 8.68533 216.499 8.536C216.359 8.37733 216.079 8.24667 215.659 8.144L214.511 7.878C213.792 7.70067 213.256 7.43933 212.901 7.094C212.556 6.73933 212.383 6.30533 212.383 5.792C212.383 5.148 212.621 4.644 213.097 4.28C213.582 3.90667 214.245 3.72 215.085 3.72C215.916 3.72 216.583 3.90667 217.087 4.28C217.6 4.65333 217.89 5.176 217.955 5.848H216.611C216.555 5.512 216.392 5.25533 216.121 5.078C215.86 4.89133 215.5 4.798 215.043 4.798C214.614 4.798 214.282 4.87733 214.049 5.036C213.825 5.18533 213.713 5.39533 213.713 5.666C213.713 5.89 213.797 6.07667 213.965 6.226C214.142 6.37533 214.432 6.50133 214.833 6.604L216.009 6.898C216.69 7.066 217.204 7.34133 217.549 7.724C217.894 8.09733 218.067 8.55 218.067 9.082C218.067 9.726 217.815 10.23 217.311 10.594C216.816 10.958 216.121 11.14 215.225 11.14ZM222.743 11.14C222.024 11.14 221.389 10.9813 220.839 10.664C220.297 10.3467 219.873 9.908 219.565 9.348C219.257 8.788 219.103 8.144 219.103 7.416C219.103 6.67867 219.252 6.03467 219.551 5.484C219.859 4.924 220.288 4.49 220.839 4.182C221.389 3.874 222.019 3.72 222.729 3.72C223.419 3.72 224.017 3.86933 224.521 4.168C225.034 4.45733 225.426 4.86333 225.697 5.386C225.977 5.90867 226.117 6.52933 226.117 7.248C226.117 7.36 226.112 7.46733 226.103 7.57C226.103 7.66333 226.093 7.76133 226.075 7.864H220.083V6.772H225.053L224.689 7.206C224.689 6.44067 224.516 5.85733 224.171 5.456C223.825 5.05467 223.345 4.854 222.729 4.854C222.066 4.854 221.539 5.08267 221.147 5.54C220.764 5.988 220.573 6.61333 220.573 7.416C220.573 8.228 220.764 8.86267 221.147 9.32C221.539 9.77733 222.08 10.006 222.771 10.006C223.191 10.006 223.555 9.922 223.863 9.754C224.171 9.57667 224.399 9.32 224.549 8.984H225.921C225.687 9.656 225.291 10.1833 224.731 10.566C224.18 10.9487 223.517 11.14 222.743 11.14ZM227.606 11V3.86H228.992V5.638H229.062V11H227.606ZM229.062 7.276L228.88 5.582C229.048 4.97533 229.337 4.51333 229.748 4.196C230.159 3.87867 230.649 3.72 231.218 3.72C231.433 3.72 231.582 3.73867 231.666 3.776V5.148C231.619 5.12933 231.554 5.12 231.47 5.12C231.386 5.11067 231.283 5.106 231.162 5.106C230.462 5.106 229.935 5.288 229.58 5.652C229.235 6.016 229.062 6.55733 229.062 7.276ZM235.091 11L232.179 3.86H233.733L236.113 10.342H235.427L237.779 3.86H239.277L236.379 11H235.091ZM243.36 11.14C242.641 11.14 242.006 10.9813 241.456 10.664C240.914 10.3467 240.49 9.908 240.182 9.348C239.874 8.788 239.72 8.144 239.72 7.416C239.72 6.67867 239.869 6.03467 240.168 5.484C240.476 4.924 240.905 4.49 241.456 4.182C242.006 3.874 242.636 3.72 243.346 3.72C244.036 3.72 244.634 3.86933 245.138 4.168C245.651 4.45733 246.043 4.86333 246.314 5.386C246.594 5.90867 246.734 6.52933 246.734 7.248C246.734 7.36 246.729 7.46733 246.72 7.57C246.72 7.66333 246.71 7.76133 246.692 7.864H240.7V6.772H245.67L245.306 7.206C245.306 6.44067 245.133 5.85733 244.788 5.456C244.442 5.05467 243.962 4.854 243.346 4.854C242.683 4.854 242.156 5.08267 241.764 5.54C241.381 5.988 241.19 6.61333 241.19 7.416C241.19 8.228 241.381 8.86267 241.764 9.32C242.156 9.77733 242.697 10.006 243.388 10.006C243.808 10.006 244.172 9.922 244.48 9.754C244.788 9.57667 245.016 9.32 245.166 8.984H246.538C246.304 9.656 245.908 10.1833 245.348 10.566C244.797 10.9487 244.134 11.14 243.36 11.14ZM253.416 11V9.362L253.556 9.404C253.407 9.936 253.099 10.3607 252.632 10.678C252.166 10.986 251.606 11.14 250.952 11.14C250.308 11.14 249.744 10.986 249.258 10.678C248.782 10.37 248.409 9.94067 248.138 9.39C247.877 8.83933 247.746 8.19533 247.746 7.458C247.746 6.71133 247.882 6.058 248.152 5.498C248.423 4.938 248.801 4.504 249.286 4.196C249.772 3.888 250.341 3.734 250.994 3.734C251.676 3.734 252.236 3.89733 252.674 4.224C253.122 4.54133 253.416 4.98933 253.556 5.568L253.36 5.596V0.92H254.802V11H253.416ZM251.316 9.922C251.96 9.922 252.469 9.70267 252.842 9.264C253.216 8.816 253.402 8.2 253.402 7.416C253.402 6.65067 253.211 6.04867 252.828 5.61C252.455 5.162 251.946 4.938 251.302 4.938C250.668 4.938 250.164 5.162 249.79 5.61C249.426 6.04867 249.244 6.66467 249.244 7.458C249.244 8.23267 249.426 8.83933 249.79 9.278C250.164 9.70733 250.672 9.922 251.316 9.922ZM256.822 11V9.264H258.544V11H256.822Z" fill="#3E4757"/>
</svg>
