<svg width="412" height="376" viewBox="0 0 412 376" fill="none" xmlns="http://www.w3.org/2000/svg">
<g clip-path="url(#clip0_55_996)">
<mask id="mask0_55_996" style="mask-type:alpha" maskUnits="userSpaceOnUse" x="-3" y="0" width="415" height="376">
<path d="M411.076 0H-3V376H411.076V0Z" fill="url(#paint0_radial_55_996)"/>
</mask>
<g mask="url(#mask0_55_996)">
<path d="M40.3313 269.838H-0.574219V310.743H40.3313V269.838Z" stroke="black" stroke-opacity="0.13"/>
<path d="M81.2375 269.838H40.332V310.743H81.2375V269.838Z" stroke="black" stroke-opacity="0.13"/>
<path d="M122.143 269.838H81.2373V310.743H122.143V269.838Z" stroke="black" stroke-opacity="0.13"/>
<path d="M163.051 269.838H122.145V310.743H163.051V269.838Z" stroke="black" stroke-opacity="0.13"/>
<path d="M203.958 269.838H163.053V310.743H203.958V269.838Z" stroke="black" stroke-opacity="0.13"/>
<path d="M244.865 269.838H203.96V310.743H244.865V269.838Z" stroke="black" stroke-opacity="0.13"/>
<path d="M285.771 269.838H244.866V310.743H285.771V269.838Z" stroke="black" stroke-opacity="0.13"/>
<path d="M326.679 269.838H285.774V310.743H326.679V269.838Z" stroke="black" stroke-opacity="0.13"/>
<path d="M367.585 269.838H326.68V310.743H367.585V269.838Z" stroke="black" stroke-opacity="0.13"/>
<path d="M408.492 269.838H367.587V310.743H408.492V269.838Z" stroke="black" stroke-opacity="0.13"/>
<path d="M449.397 269.838H408.492V310.743H449.397V269.838Z" stroke="black" stroke-opacity="0.13"/>
<path d="M40.3313 310.732H-0.574219V351.637H40.3313V310.732Z" stroke="black" stroke-opacity="0.13"/>
<path d="M40.3313 -16.4268H-0.574219V24.4787H40.3313V-16.4268Z" stroke="black" stroke-opacity="0.13"/>
<path d="M81.2375 310.732H40.332V351.637H81.2375V310.732Z" stroke="black" stroke-opacity="0.13"/>
<path d="M81.2375 -16.4268H40.332V24.4787H81.2375V-16.4268Z" stroke="black" stroke-opacity="0.13"/>
<path d="M122.143 310.732H81.2373V351.637H122.143V310.732Z" stroke="black" stroke-opacity="0.13"/>
<path d="M122.143 -16.4268H81.2373V24.4787H122.143V-16.4268Z" stroke="black" stroke-opacity="0.13"/>
<path d="M163.051 310.732H122.145V351.637H163.051V310.732Z" stroke="black" stroke-opacity="0.13"/>
<path d="M163.051 -16.4268H122.145V24.4787H163.051V-16.4268Z" stroke="black" stroke-opacity="0.13"/>
<path d="M203.958 310.732H163.053V351.637H203.958V310.732Z" stroke="black" stroke-opacity="0.13"/>
<path d="M203.958 -16.4268H163.053V24.4787H203.958V-16.4268Z" stroke="black" stroke-opacity="0.13"/>
<path d="M244.865 310.732H203.96V351.637H244.865V310.732Z" stroke="black" stroke-opacity="0.13"/>
<path d="M244.865 -16.4268H203.96V24.4787H244.865V-16.4268Z" stroke="black" stroke-opacity="0.13"/>
<path d="M285.771 310.732H244.866V351.637H285.771V310.732Z" stroke="black" stroke-opacity="0.13"/>
<path d="M285.771 -16.4268H244.866V24.4787H285.771V-16.4268Z" stroke="black" stroke-opacity="0.13"/>
<path d="M326.679 310.732H285.774V351.637H326.679V310.732Z" stroke="black" stroke-opacity="0.13"/>
<path d="M326.679 -16.4268H285.774V24.4787H326.679V-16.4268Z" stroke="black" stroke-opacity="0.13"/>
<path d="M367.585 310.733H326.68V351.638H367.585V310.733Z" stroke="black" stroke-opacity="0.13"/>
<path d="M367.585 -16.4268H326.68V24.4787H367.585V-16.4268Z" stroke="black" stroke-opacity="0.13"/>
<path d="M408.492 310.732H367.587V351.637H408.492V310.732Z" stroke="black" stroke-opacity="0.13"/>
<path d="M408.492 -16.4268H367.587V24.4787H408.492V-16.4268Z" stroke="black" stroke-opacity="0.13"/>
<path d="M449.397 310.732H408.492V351.637H449.397V310.732Z" stroke="black" stroke-opacity="0.13"/>
<path d="M449.397 -16.4268H408.492V24.4787H449.397V-16.4268Z" stroke="black" stroke-opacity="0.13"/>
<path d="M40.3313 351.628H-0.574219V392.533H40.3313V351.628Z" stroke="black" stroke-opacity="0.13"/>
<path d="M40.3313 24.4688H-0.574219V65.3743H40.3313V24.4688Z" stroke="black" stroke-opacity="0.13"/>
<path d="M81.2375 351.628H40.332V392.533H81.2375V351.628Z" stroke="black" stroke-opacity="0.13"/>
<path d="M81.2375 24.4688H40.332V65.3743H81.2375V24.4688Z" stroke="black" stroke-opacity="0.13"/>
<path d="M122.143 351.628H81.2373V392.533H122.143V351.628Z" stroke="black" stroke-opacity="0.13"/>
<path d="M122.143 24.4688H81.2373V65.3743H122.143V24.4688Z" stroke="black" stroke-opacity="0.13"/>
<path d="M163.051 351.628H122.145V392.533H163.051V351.628Z" stroke="black" stroke-opacity="0.13"/>
<path d="M163.051 24.4688H122.145V65.3743H163.051V24.4688Z" stroke="black" stroke-opacity="0.13"/>
<path d="M203.958 351.628H163.053V392.533H203.958V351.628Z" stroke="black" stroke-opacity="0.13"/>
<path d="M203.958 24.4688H163.053V65.3743H203.958V24.4688Z" stroke="black" stroke-opacity="0.13"/>
<path d="M244.865 351.628H203.96V392.533H244.865V351.628Z" stroke="black" stroke-opacity="0.13"/>
<path d="M244.865 24.4688H203.96V65.3743H244.865V24.4688Z" stroke="black" stroke-opacity="0.13"/>
<path d="M285.771 351.628H244.866V392.533H285.771V351.628Z" stroke="black" stroke-opacity="0.13"/>
<path d="M285.771 24.4688H244.866V65.3742H285.771V24.4688Z" stroke="black" stroke-opacity="0.13"/>
<path d="M326.679 351.628H285.774V392.533H326.679V351.628Z" stroke="black" stroke-opacity="0.13"/>
<path d="M326.679 24.4688H285.774V65.3742H326.679V24.4688Z" stroke="black" stroke-opacity="0.13"/>
<path d="M367.585 351.628H326.68V392.533H367.585V351.628Z" stroke="black" stroke-opacity="0.13"/>
<path d="M367.585 24.4688H326.68V65.3742H367.585V24.4688Z" stroke="black" stroke-opacity="0.13"/>
<path d="M408.492 351.628H367.587V392.533H408.492V351.628Z" stroke="black" stroke-opacity="0.13"/>
<path d="M408.492 24.4688H367.587V65.3742H408.492V24.4688Z" stroke="black" stroke-opacity="0.13"/>
<path d="M449.397 351.628H408.492V392.533H449.397V351.628Z" stroke="black" stroke-opacity="0.13"/>
<path d="M449.397 24.4688H408.492V65.3742H449.397V24.4688Z" stroke="black" stroke-opacity="0.13"/>
<path d="M40.3313 65.3633H-0.574219V106.269H40.3313V65.3633Z" stroke="black" stroke-opacity="0.13"/>
<path d="M81.2375 65.3633H40.332V106.269H81.2375V65.3633Z" stroke="black" stroke-opacity="0.13"/>
<path d="M122.143 65.3633H81.2373V106.269H122.143V65.3633Z" stroke="black" stroke-opacity="0.13"/>
<path d="M163.051 65.3633H122.145V106.269H163.051V65.3633Z" stroke="black" stroke-opacity="0.13"/>
<path d="M203.958 65.3633H163.053V106.269H203.958V65.3633Z" stroke="black" stroke-opacity="0.13"/>
<path d="M244.865 65.3633H203.96V106.269H244.865V65.3633Z" stroke="black" stroke-opacity="0.13"/>
<path d="M285.771 65.3633H244.866V106.269H285.771V65.3633Z" stroke="black" stroke-opacity="0.13"/>
<path d="M326.679 65.3633H285.774V106.269H326.679V65.3633Z" stroke="black" stroke-opacity="0.13"/>
<path d="M367.585 65.3633H326.68V106.269H367.585V65.3633Z" stroke="black" stroke-opacity="0.13"/>
<path d="M408.492 65.3633H367.587V106.269H408.492V65.3633Z" stroke="black" stroke-opacity="0.13"/>
<path d="M449.397 65.3633H408.492V106.269H449.397V65.3633Z" stroke="black" stroke-opacity="0.13"/>
<path d="M40.3313 106.258H-0.574219V147.163H40.3313V106.258Z" stroke="black" stroke-opacity="0.13"/>
<path d="M81.2375 106.258H40.332V147.163H81.2375V106.258Z" stroke="black" stroke-opacity="0.13"/>
<path d="M122.143 106.258H81.2373V147.163H122.143V106.258Z" stroke="black" stroke-opacity="0.13"/>
<path d="M163.051 106.258H122.145V147.163H163.051V106.258Z" stroke="black" stroke-opacity="0.13"/>
<path d="M203.958 106.258H163.053V147.163H203.958V106.258Z" stroke="black" stroke-opacity="0.13"/>
<path d="M244.865 106.258H203.96V147.163H244.865V106.258Z" stroke="black" stroke-opacity="0.13"/>
<path d="M285.771 106.258H244.866V147.163H285.771V106.258Z" stroke="black" stroke-opacity="0.13"/>
<path d="M326.679 106.258H285.774V147.163H326.679V106.258Z" stroke="black" stroke-opacity="0.13"/>
<path d="M367.585 106.258H326.68V147.163H367.585V106.258Z" stroke="black" stroke-opacity="0.13"/>
<path d="M408.492 106.258H367.587V147.163H408.492V106.258Z" stroke="black" stroke-opacity="0.13"/>
<path d="M449.397 106.258H408.492V147.163H449.397V106.258Z" stroke="black" stroke-opacity="0.13"/>
<path d="M40.3313 147.153H-0.574219V188.058H40.3313V147.153Z" stroke="black" stroke-opacity="0.13"/>
<path d="M81.2375 147.153H40.332V188.058H81.2375V147.153Z" stroke="black" stroke-opacity="0.13"/>
<path d="M122.143 147.153H81.2373V188.058H122.143V147.153Z" stroke="black" stroke-opacity="0.13"/>
<path d="M163.051 147.153H122.145V188.058H163.051V147.153Z" stroke="black" stroke-opacity="0.13"/>
<path d="M203.958 147.153H163.053V188.058H203.958V147.153Z" stroke="black" stroke-opacity="0.13"/>
<path d="M244.865 147.153H203.96V188.058H244.865V147.153Z" stroke="black" stroke-opacity="0.13"/>
<path d="M285.771 147.153H244.866V188.058H285.771V147.153Z" stroke="black" stroke-opacity="0.13"/>
<path d="M326.679 147.153H285.774V188.058H326.679V147.153Z" stroke="black" stroke-opacity="0.13"/>
<path d="M367.585 147.153H326.68V188.058H367.585V147.153Z" stroke="black" stroke-opacity="0.13"/>
<path d="M408.492 147.153H367.587V188.058H408.492V147.153Z" stroke="black" stroke-opacity="0.13"/>
<path d="M449.397 147.153H408.492V188.058H449.397V147.153Z" stroke="black" stroke-opacity="0.13"/>
<path d="M40.3313 188.048H-0.574219V228.953H40.3313V188.048Z" stroke="black" stroke-opacity="0.13"/>
<path d="M81.2375 188.048H40.332V228.953H81.2375V188.048Z" stroke="black" stroke-opacity="0.13"/>
<path d="M122.143 188.048H81.2373V228.953H122.143V188.048Z" stroke="black" stroke-opacity="0.13"/>
<path d="M163.051 188.048H122.145V228.953H163.051V188.048Z" stroke="black" stroke-opacity="0.13"/>
<path d="M203.958 188.048H163.053V228.953H203.958V188.048Z" stroke="black" stroke-opacity="0.13"/>
<path d="M244.865 188.048H203.96V228.953H244.865V188.048Z" stroke="black" stroke-opacity="0.13"/>
<path d="M285.771 188.049H244.866V228.954H285.771V188.049Z" stroke="black" stroke-opacity="0.13"/>
<path d="M326.679 188.049H285.774V228.954H326.679V188.049Z" stroke="black" stroke-opacity="0.13"/>
<path d="M367.585 188.049H326.68V228.954H367.585V188.049Z" stroke="black" stroke-opacity="0.13"/>
<path d="M408.492 188.049H367.587V228.954H408.492V188.049Z" stroke="black" stroke-opacity="0.13"/>
<path d="M449.397 188.049H408.492V228.954H449.397V188.049Z" stroke="black" stroke-opacity="0.13"/>
<path d="M40.3313 228.943H-0.574219V269.848H40.3313V228.943Z" stroke="black" stroke-opacity="0.13"/>
<path d="M81.2375 228.943H40.332V269.848H81.2375V228.943Z" stroke="black" stroke-opacity="0.13"/>
<path d="M122.143 228.943H81.2373V269.848H122.143V228.943Z" stroke="black" stroke-opacity="0.13"/>
<path d="M163.051 228.943H122.145V269.848H163.051V228.943Z" stroke="black" stroke-opacity="0.13"/>
<path d="M203.958 228.943H163.053V269.848H203.958V228.943Z" stroke="black" stroke-opacity="0.13"/>
<path d="M244.865 228.943H203.96V269.848H244.865V228.943Z" stroke="black" stroke-opacity="0.13"/>
<path d="M285.771 228.943H244.866V269.848H285.771V228.943Z" stroke="black" stroke-opacity="0.13"/>
<path d="M326.679 228.943H285.774V269.848H326.679V228.943Z" stroke="black" stroke-opacity="0.13"/>
<path d="M367.585 228.943H326.68V269.848H367.585V228.943Z" stroke="black" stroke-opacity="0.13"/>
<path d="M408.492 228.943H367.587V269.848H408.492V228.943Z" stroke="black" stroke-opacity="0.13"/>
<path d="M449.397 228.943H408.492V269.848H449.397V228.943Z" stroke="black" stroke-opacity="0.13"/>
<path d="M81.2984 177.59V188.155H70.7329" stroke="url(#paint1_linear_55_996)" stroke-linecap="round"/>
<path d="M81.0737 177.59V187.931H91.8639" stroke="url(#paint2_linear_55_996)" stroke-linecap="round"/>
<path d="M81.0737 198.271V187.93H91.8639" stroke="url(#paint3_linear_55_996)" stroke-linecap="round"/>
<path d="M81.0745 198.271V187.93H70.2842" stroke="url(#paint4_linear_55_996)" stroke-linecap="round"/>
<path d="M122.212 95.7632V106.329H111.646" stroke="url(#paint5_linear_55_996)" stroke-linecap="round"/>
<path d="M121.987 95.7632V106.104H132.777" stroke="url(#paint6_linear_55_996)" stroke-linecap="round"/>
<path d="M121.987 116.445V106.104H132.777" stroke="url(#paint7_linear_55_996)" stroke-linecap="round"/>
<path d="M121.987 116.445V106.104H111.197" stroke="url(#paint8_linear_55_996)" stroke-linecap="round"/>
<path d="M326.777 136.677V147.242H316.211" stroke="url(#paint9_linear_55_996)" stroke-linecap="round"/>
<path d="M326.552 136.677V147.017H337.343" stroke="url(#paint10_linear_55_996)" stroke-linecap="round"/>
<path d="M326.552 157.358V147.017H337.343" stroke="url(#paint11_linear_55_996)" stroke-linecap="round"/>
<path d="M326.553 157.358V147.017H315.763" stroke="url(#paint12_linear_55_996)" stroke-linecap="round"/>
<path d="M367.689 218.503V229.068H357.123" stroke="url(#paint13_linear_55_996)" stroke-linecap="round"/>
<path d="M367.466 218.503V228.843H378.256" stroke="url(#paint14_linear_55_996)" stroke-linecap="round"/>
<path d="M367.466 239.184V228.843H378.256" stroke="url(#paint15_linear_55_996)" stroke-linecap="round"/>
<path d="M367.464 239.184V228.843H356.674" stroke="url(#paint16_linear_55_996)" stroke-linecap="round"/>
</g>
</g>
<defs>
<radialGradient id="paint0_radial_55_996" cx="0" cy="0" r="1" gradientUnits="userSpaceOnUse" gradientTransform="translate(204.038 188) rotate(90) scale(499.897 550.52)">
<stop stop-color="white" stop-opacity="0.46"/>
<stop offset="0.54" stop-color="white" stop-opacity="0"/>
</radialGradient>
<linearGradient id="paint1_linear_55_996" x1="81.4356" y1="177.59" x2="70.5967" y2="188.014" gradientUnits="userSpaceOnUse">
<stop offset="0.0394381" stop-color="#EBEBEB"/>
<stop offset="0.55"/>
<stop offset="1" stop-color="#EBEBEB"/>
</linearGradient>
<linearGradient id="paint2_linear_55_996" x1="80.9335" y1="177.59" x2="91.5498" y2="188.243" gradientUnits="userSpaceOnUse">
<stop offset="0.0394381" stop-color="#EBEBEB"/>
<stop offset="0.55"/>
<stop offset="1" stop-color="#EBEBEB"/>
</linearGradient>
<linearGradient id="paint3_linear_55_996" x1="80.9335" y1="198.271" x2="91.5498" y2="187.617" gradientUnits="userSpaceOnUse">
<stop offset="0.0394381" stop-color="#EBEBEB"/>
<stop offset="0.55"/>
<stop offset="1" stop-color="#EBEBEB"/>
</linearGradient>
<linearGradient id="paint4_linear_55_996" x1="81.2146" y1="198.271" x2="70.5983" y2="187.617" gradientUnits="userSpaceOnUse">
<stop offset="0.0394381" stop-color="#EBEBEB"/>
<stop offset="0.55"/>
<stop offset="1" stop-color="#EBEBEB"/>
</linearGradient>
<linearGradient id="paint5_linear_55_996" x1="122.349" y1="95.7632" x2="111.51" y2="106.187" gradientUnits="userSpaceOnUse">
<stop offset="0.0394381" stop-color="#EBEBEB"/>
<stop offset="0.55"/>
<stop offset="1" stop-color="#EBEBEB"/>
</linearGradient>
<linearGradient id="paint6_linear_55_996" x1="121.847" y1="95.7632" x2="132.463" y2="106.417" gradientUnits="userSpaceOnUse">
<stop offset="0.0394381" stop-color="#EBEBEB"/>
<stop offset="0.55"/>
<stop offset="1" stop-color="#EBEBEB"/>
</linearGradient>
<linearGradient id="paint7_linear_55_996" x1="121.847" y1="116.445" x2="132.463" y2="105.791" gradientUnits="userSpaceOnUse">
<stop offset="0.0394381" stop-color="#EBEBEB"/>
<stop offset="0.55"/>
<stop offset="1" stop-color="#EBEBEB"/>
</linearGradient>
<linearGradient id="paint8_linear_55_996" x1="122.128" y1="116.445" x2="111.511" y2="105.791" gradientUnits="userSpaceOnUse">
<stop offset="0.0394381" stop-color="#EBEBEB"/>
<stop offset="0.55"/>
<stop offset="1" stop-color="#EBEBEB"/>
</linearGradient>
<linearGradient id="paint9_linear_55_996" x1="326.914" y1="136.677" x2="316.075" y2="147.1" gradientUnits="userSpaceOnUse">
<stop offset="0.0394381" stop-color="#EBEBEB"/>
<stop offset="0.55"/>
<stop offset="1" stop-color="#EBEBEB"/>
</linearGradient>
<linearGradient id="paint10_linear_55_996" x1="326.412" y1="136.677" x2="337.029" y2="147.33" gradientUnits="userSpaceOnUse">
<stop offset="0.0394381" stop-color="#EBEBEB"/>
<stop offset="0.55"/>
<stop offset="1" stop-color="#EBEBEB"/>
</linearGradient>
<linearGradient id="paint11_linear_55_996" x1="326.412" y1="157.358" x2="337.029" y2="146.704" gradientUnits="userSpaceOnUse">
<stop offset="0.0394381" stop-color="#EBEBEB"/>
<stop offset="0.55"/>
<stop offset="1" stop-color="#EBEBEB"/>
</linearGradient>
<linearGradient id="paint12_linear_55_996" x1="326.693" y1="157.358" x2="316.077" y2="146.704" gradientUnits="userSpaceOnUse">
<stop offset="0.0394381" stop-color="#EBEBEB"/>
<stop offset="0.55"/>
<stop offset="1" stop-color="#EBEBEB"/>
</linearGradient>
<linearGradient id="paint13_linear_55_996" x1="367.826" y1="218.503" x2="356.987" y2="228.926" gradientUnits="userSpaceOnUse">
<stop offset="0.0394381" stop-color="#EBEBEB"/>
<stop offset="0.55"/>
<stop offset="1" stop-color="#EBEBEB"/>
</linearGradient>
<linearGradient id="paint14_linear_55_996" x1="367.326" y1="218.503" x2="377.942" y2="229.156" gradientUnits="userSpaceOnUse">
<stop offset="0.0394381" stop-color="#EBEBEB"/>
<stop offset="0.55"/>
<stop offset="1" stop-color="#EBEBEB"/>
</linearGradient>
<linearGradient id="paint15_linear_55_996" x1="367.326" y1="239.184" x2="377.942" y2="228.53" gradientUnits="userSpaceOnUse">
<stop offset="0.0394381" stop-color="#EBEBEB"/>
<stop offset="0.55"/>
<stop offset="1" stop-color="#EBEBEB"/>
</linearGradient>
<linearGradient id="paint16_linear_55_996" x1="367.604" y1="239.184" x2="356.988" y2="228.53" gradientUnits="userSpaceOnUse">
<stop offset="0.0394381" stop-color="#EBEBEB"/>
<stop offset="0.55"/>
<stop offset="1" stop-color="#EBEBEB"/>
</linearGradient>
<clipPath id="clip0_55_996">
<rect width="415" height="376" fill="white" transform="translate(-3)"/>
</clipPath>
</defs>
</svg>
