<svg width="415" height="376" viewBox="0 0 415 376" fill="none" xmlns="http://www.w3.org/2000/svg">
<g clip-path="url(#clip0_55_1137)">
<mask id="mask0_55_1137" style="mask-type:alpha" maskUnits="userSpaceOnUse" x="0" y="0" width="415" height="376">
<path d="M0.924011 0H415V376H0.924011V0Z" fill="url(#paint0_radial_55_1137)"/>
</mask>
<g mask="url(#mask0_55_1137)">
<path d="M412.576 269.838H453.481V310.743H412.576V269.838Z" stroke="black" stroke-opacity="0.13"/>
<path d="M371.669 269.838H412.574V310.743H371.669V269.838Z" stroke="black" stroke-opacity="0.13"/>
<path d="M330.762 269.838H371.668V310.743H330.762V269.838Z" stroke="black" stroke-opacity="0.13"/>
<path d="M289.857 269.838H330.763V310.743H289.857V269.838Z" stroke="black" stroke-opacity="0.13"/>
<path d="M248.949 269.838H289.855V310.743H248.949V269.838Z" stroke="black" stroke-opacity="0.13"/>
<path d="M208.042 269.838H248.947V310.743H208.042V269.838Z" stroke="black" stroke-opacity="0.13"/>
<path d="M167.135 269.838H208.04V310.743H167.135V269.838Z" stroke="black" stroke-opacity="0.13"/>
<path d="M126.229 269.838H167.134V310.743H126.229V269.838Z" stroke="black" stroke-opacity="0.13"/>
<path d="M85.3206 269.838H126.226V310.743H85.3206V269.838Z" stroke="black" stroke-opacity="0.13"/>
<path d="M44.4148 269.838H85.3203V310.743H44.4148V269.838Z" stroke="black" stroke-opacity="0.13"/>
<path d="M3.5076 269.838H44.4131V310.743H3.5076V269.838Z" stroke="black" stroke-opacity="0.13"/>
<path d="M-37.3972 269.838H3.5083V310.743H-37.3972V269.838Z" stroke="black" stroke-opacity="0.13"/>
<path d="M412.576 310.732H453.481V351.637H412.576V310.732Z" stroke="black" stroke-opacity="0.13"/>
<path d="M412.576 -16.4268H453.481V24.4787H412.576V-16.4268Z" stroke="black" stroke-opacity="0.13"/>
<path d="M371.669 310.732H412.574V351.637H371.669V310.732Z" stroke="black" stroke-opacity="0.13"/>
<path d="M371.669 -16.4268H412.574V24.4787H371.669V-16.4268Z" stroke="black" stroke-opacity="0.13"/>
<path d="M330.762 310.732H371.668V351.637H330.762V310.732Z" stroke="black" stroke-opacity="0.13"/>
<path d="M330.762 -16.4268H371.668V24.4787H330.762V-16.4268Z" stroke="black" stroke-opacity="0.13"/>
<path d="M289.857 310.732H330.763V351.637H289.857V310.732Z" stroke="black" stroke-opacity="0.13"/>
<path d="M289.857 -16.4268H330.763V24.4787H289.857V-16.4268Z" stroke="black" stroke-opacity="0.13"/>
<path d="M248.949 310.732H289.855V351.637H248.949V310.732Z" stroke="black" stroke-opacity="0.13"/>
<path d="M248.949 -16.4268H289.855V24.4787H248.949V-16.4268Z" stroke="black" stroke-opacity="0.13"/>
<path d="M208.042 310.732H248.947V351.637H208.042V310.732Z" stroke="black" stroke-opacity="0.13"/>
<path d="M208.042 -16.4268H248.947V24.4787H208.042V-16.4268Z" stroke="black" stroke-opacity="0.13"/>
<path d="M167.135 310.732H208.04V351.637H167.135V310.732Z" stroke="black" stroke-opacity="0.13"/>
<path d="M167.135 -16.4268H208.04V24.4787H167.135V-16.4268Z" stroke="black" stroke-opacity="0.13"/>
<path d="M126.229 310.732H167.134V351.637H126.229V310.732Z" stroke="black" stroke-opacity="0.13"/>
<path d="M126.229 -16.4268H167.134V24.4787H126.229V-16.4268Z" stroke="black" stroke-opacity="0.13"/>
<path d="M85.3206 310.732H126.226V351.637H85.3206V310.732Z" stroke="black" stroke-opacity="0.13"/>
<path d="M85.3206 -16.4268H126.226V24.4787H85.3206V-16.4268Z" stroke="black" stroke-opacity="0.13"/>
<path d="M44.4148 310.733H85.3203V351.638H44.4148V310.733Z" stroke="black" stroke-opacity="0.13"/>
<path d="M44.4148 -16.4268H85.3203V24.4787H44.4148V-16.4268Z" stroke="black" stroke-opacity="0.13"/>
<path d="M3.5076 310.732H44.4131V351.637H3.5076V310.732Z" stroke="black" stroke-opacity="0.13"/>
<path d="M3.5076 -16.4268H44.4131V24.4787H3.5076V-16.4268Z" stroke="black" stroke-opacity="0.13"/>
<path d="M-37.3972 310.732H3.5083V351.637H-37.3972V310.732Z" stroke="black" stroke-opacity="0.13"/>
<path d="M-37.3972 -16.4268H3.5083V24.4787H-37.3972V-16.4268Z" stroke="black" stroke-opacity="0.13"/>
<path d="M412.576 351.628H453.481V392.533H412.576V351.628Z" stroke="black" stroke-opacity="0.13"/>
<path d="M412.576 24.4688H453.481V65.3743H412.576V24.4688Z" stroke="black" stroke-opacity="0.13"/>
<path d="M371.669 351.628H412.574V392.533H371.669V351.628Z" stroke="black" stroke-opacity="0.13"/>
<path d="M371.669 24.4688H412.574V65.3743H371.669V24.4688Z" stroke="black" stroke-opacity="0.13"/>
<path d="M330.762 351.628H371.668V392.533H330.762V351.628Z" stroke="black" stroke-opacity="0.13"/>
<path d="M330.762 24.4688H371.668V65.3743H330.762V24.4688Z" stroke="black" stroke-opacity="0.13"/>
<path d="M289.857 351.628H330.763V392.533H289.857V351.628Z" stroke="black" stroke-opacity="0.13"/>
<path d="M289.857 24.4688H330.763V65.3743H289.857V24.4688Z" stroke="black" stroke-opacity="0.13"/>
<path d="M248.949 351.628H289.855V392.533H248.949V351.628Z" stroke="black" stroke-opacity="0.13"/>
<path d="M248.949 24.4688H289.855V65.3743H248.949V24.4688Z" stroke="black" stroke-opacity="0.13"/>
<path d="M208.042 351.628H248.947V392.533H208.042V351.628Z" stroke="black" stroke-opacity="0.13"/>
<path d="M208.042 24.4688H248.947V65.3743H208.042V24.4688Z" stroke="black" stroke-opacity="0.13"/>
<path d="M167.135 351.628H208.04V392.533H167.135V351.628Z" stroke="black" stroke-opacity="0.13"/>
<path d="M167.135 24.4688H208.04V65.3743H167.135V24.4688Z" stroke="black" stroke-opacity="0.13"/>
<path d="M126.229 351.628H167.134V392.533H126.229V351.628Z" stroke="black" stroke-opacity="0.13"/>
<path d="M126.229 24.4688H167.134V65.3742H126.229V24.4688Z" stroke="black" stroke-opacity="0.13"/>
<path d="M85.3206 351.628H126.226V392.533H85.3206V351.628Z" stroke="black" stroke-opacity="0.13"/>
<path d="M85.3206 24.4688H126.226V65.3742H85.3206V24.4688Z" stroke="black" stroke-opacity="0.13"/>
<path d="M44.4148 351.628H85.3203V392.533H44.4148V351.628Z" stroke="black" stroke-opacity="0.13"/>
<path d="M44.4148 24.4688H85.3203V65.3742H44.4148V24.4688Z" stroke="black" stroke-opacity="0.13"/>
<path d="M3.5076 351.628H44.4131V392.533H3.5076V351.628Z" stroke="black" stroke-opacity="0.13"/>
<path d="M3.5076 24.4688H44.4131V65.3742H3.5076V24.4688Z" stroke="black" stroke-opacity="0.13"/>
<path d="M-37.3972 351.628H3.5083V392.533H-37.3972V351.628Z" stroke="black" stroke-opacity="0.13"/>
<path d="M-37.3972 24.4688H3.5083V65.3742H-37.3972V24.4688Z" stroke="black" stroke-opacity="0.13"/>
<path d="M412.576 65.3633H453.481V106.269H412.576V65.3633Z" stroke="black" stroke-opacity="0.13"/>
<path d="M371.669 65.3633H412.574V106.269H371.669V65.3633Z" stroke="black" stroke-opacity="0.13"/>
<path d="M330.762 65.3633H371.668V106.269H330.762V65.3633Z" stroke="black" stroke-opacity="0.13"/>
<path d="M289.857 65.3633H330.763V106.269H289.857V65.3633Z" stroke="black" stroke-opacity="0.13"/>
<path d="M248.949 65.3633H289.855V106.269H248.949V65.3633Z" stroke="black" stroke-opacity="0.13"/>
<path d="M208.042 65.3633H248.947V106.269H208.042V65.3633Z" stroke="black" stroke-opacity="0.13"/>
<path d="M167.135 65.3633H208.04V106.269H167.135V65.3633Z" stroke="black" stroke-opacity="0.13"/>
<path d="M126.229 65.3633H167.134V106.269H126.229V65.3633Z" stroke="black" stroke-opacity="0.13"/>
<path d="M85.3206 65.3633H126.226V106.269H85.3206V65.3633Z" stroke="black" stroke-opacity="0.13"/>
<path d="M44.4148 65.3633H85.3203V106.269H44.4148V65.3633Z" stroke="black" stroke-opacity="0.13"/>
<path d="M3.5076 65.3633H44.4131V106.269H3.5076V65.3633Z" stroke="black" stroke-opacity="0.13"/>
<path d="M-37.3972 65.3633H3.5083V106.269H-37.3972V65.3633Z" stroke="black" stroke-opacity="0.13"/>
<path d="M412.576 106.258H453.481V147.163H412.576V106.258Z" stroke="black" stroke-opacity="0.13"/>
<path d="M371.669 106.258H412.574V147.163H371.669V106.258Z" stroke="black" stroke-opacity="0.13"/>
<path d="M330.762 106.258H371.668V147.163H330.762V106.258Z" stroke="black" stroke-opacity="0.13"/>
<path d="M289.857 106.258H330.763V147.163H289.857V106.258Z" stroke="black" stroke-opacity="0.13"/>
<path d="M248.949 106.258H289.855V147.163H248.949V106.258Z" stroke="black" stroke-opacity="0.13"/>
<path d="M208.042 106.258H248.947V147.163H208.042V106.258Z" stroke="black" stroke-opacity="0.13"/>
<path d="M167.135 106.258H208.04V147.163H167.135V106.258Z" stroke="black" stroke-opacity="0.13"/>
<path d="M126.229 106.258H167.134V147.163H126.229V106.258Z" stroke="black" stroke-opacity="0.13"/>
<path d="M85.3206 106.258H126.226V147.163H85.3206V106.258Z" stroke="black" stroke-opacity="0.13"/>
<path d="M44.4148 106.258H85.3203V147.163H44.4148V106.258Z" stroke="black" stroke-opacity="0.13"/>
<path d="M3.5076 106.258H44.4131V147.163H3.5076V106.258Z" stroke="black" stroke-opacity="0.13"/>
<path d="M-37.3972 106.258H3.5083V147.163H-37.3972V106.258Z" stroke="black" stroke-opacity="0.13"/>
<path d="M412.576 147.153H453.481V188.058H412.576V147.153Z" stroke="black" stroke-opacity="0.13"/>
<path d="M371.669 147.153H412.574V188.058H371.669V147.153Z" stroke="black" stroke-opacity="0.13"/>
<path d="M330.762 147.153H371.668V188.058H330.762V147.153Z" stroke="black" stroke-opacity="0.13"/>
<path d="M289.857 147.153H330.763V188.058H289.857V147.153Z" stroke="black" stroke-opacity="0.13"/>
<path d="M248.949 147.153H289.855V188.058H248.949V147.153Z" stroke="black" stroke-opacity="0.13"/>
<path d="M208.042 147.153H248.947V188.058H208.042V147.153Z" stroke="black" stroke-opacity="0.13"/>
<path d="M167.135 147.153H208.04V188.058H167.135V147.153Z" stroke="black" stroke-opacity="0.13"/>
<path d="M126.229 147.153H167.134V188.058H126.229V147.153Z" stroke="black" stroke-opacity="0.13"/>
<path d="M85.3206 147.153H126.226V188.058H85.3206V147.153Z" stroke="black" stroke-opacity="0.13"/>
<path d="M44.4148 147.153H85.3203V188.058H44.4148V147.153Z" stroke="black" stroke-opacity="0.13"/>
<path d="M3.5076 147.153H44.4131V188.058H3.5076V147.153Z" stroke="black" stroke-opacity="0.13"/>
<path d="M-37.3972 147.153H3.5083V188.058H-37.3972V147.153Z" stroke="black" stroke-opacity="0.13"/>
<path d="M412.576 188.048H453.481V228.953H412.576V188.048Z" stroke="black" stroke-opacity="0.13"/>
<path d="M371.669 188.048H412.574V228.953H371.669V188.048Z" stroke="black" stroke-opacity="0.13"/>
<path d="M330.762 188.048H371.668V228.953H330.762V188.048Z" stroke="black" stroke-opacity="0.13"/>
<path d="M289.857 188.048H330.763V228.953H289.857V188.048Z" stroke="black" stroke-opacity="0.13"/>
<path d="M248.949 188.048H289.855V228.953H248.949V188.048Z" stroke="black" stroke-opacity="0.13"/>
<path d="M208.042 188.048H248.947V228.953H208.042V188.048Z" stroke="black" stroke-opacity="0.13"/>
<path d="M167.135 188.048H208.04V228.953H167.135V188.048Z" stroke="black" stroke-opacity="0.13"/>
<path d="M126.229 188.049H167.134V228.954H126.229V188.049Z" stroke="black" stroke-opacity="0.13"/>
<path d="M85.3206 188.049H126.226V228.954H85.3206V188.049Z" stroke="black" stroke-opacity="0.13"/>
<path d="M44.4148 188.049H85.3203V228.954H44.4148V188.049Z" stroke="black" stroke-opacity="0.13"/>
<path d="M3.5076 188.049H44.4131V228.954H3.5076V188.049Z" stroke="black" stroke-opacity="0.13"/>
<path d="M-37.3972 188.049H3.5083V228.954H-37.3972V188.049Z" stroke="black" stroke-opacity="0.13"/>
<path d="M412.576 228.943H453.481V269.848H412.576V228.943Z" stroke="black" stroke-opacity="0.13"/>
<path d="M371.669 228.943H412.574V269.848H371.669V228.943Z" stroke="black" stroke-opacity="0.13"/>
<path d="M330.762 228.943H371.668V269.848H330.762V228.943Z" stroke="black" stroke-opacity="0.13"/>
<path d="M289.857 228.943H330.763V269.848H289.857V228.943Z" stroke="black" stroke-opacity="0.13"/>
<path d="M248.949 228.943H289.855V269.848H248.949V228.943Z" stroke="black" stroke-opacity="0.13"/>
<path d="M208.042 228.943H248.947V269.848H208.042V228.943Z" stroke="black" stroke-opacity="0.13"/>
<path d="M167.135 228.943H208.04V269.848H167.135V228.943Z" stroke="black" stroke-opacity="0.13"/>
<path d="M126.229 228.943H167.134V269.848H126.229V228.943Z" stroke="black" stroke-opacity="0.13"/>
<path d="M85.3206 228.943H126.226V269.848H85.3206V228.943Z" stroke="black" stroke-opacity="0.13"/>
<path d="M44.4148 228.943H85.3203V269.848H44.4148V228.943Z" stroke="black" stroke-opacity="0.13"/>
<path d="M3.5076 228.943H44.4131V269.848H3.5076V228.943Z" stroke="black" stroke-opacity="0.13"/>
<path d="M-37.3972 228.943H3.5083V269.848H-37.3972V228.943Z" stroke="black" stroke-opacity="0.13"/>
<path d="M330.702 177.59V188.155H341.267" stroke="url(#paint1_linear_55_1137)" stroke-linecap="round"/>
<path d="M330.926 177.59V187.931H320.136" stroke="url(#paint2_linear_55_1137)" stroke-linecap="round"/>
<path d="M330.926 198.271V187.93H320.136" stroke="url(#paint3_linear_55_1137)" stroke-linecap="round"/>
<path d="M330.926 198.271V187.93H341.716" stroke="url(#paint4_linear_55_1137)" stroke-linecap="round"/>
<path d="M289.788 95.7632V106.329H300.354" stroke="url(#paint5_linear_55_1137)" stroke-linecap="round"/>
<path d="M290.013 95.7632V106.104H279.223" stroke="url(#paint6_linear_55_1137)" stroke-linecap="round"/>
<path d="M290.013 116.445V106.104H279.223" stroke="url(#paint7_linear_55_1137)" stroke-linecap="round"/>
<path d="M290.013 116.445V106.104H300.803" stroke="url(#paint8_linear_55_1137)" stroke-linecap="round"/>
<path d="M85.2231 136.677V147.242H95.7891" stroke="url(#paint9_linear_55_1137)" stroke-linecap="round"/>
<path d="M85.4482 136.677V147.017H74.6573" stroke="url(#paint10_linear_55_1137)" stroke-linecap="round"/>
<path d="M85.4482 157.358V147.017H74.6573" stroke="url(#paint11_linear_55_1137)" stroke-linecap="round"/>
<path d="M85.4473 157.358V147.017H96.2373" stroke="url(#paint12_linear_55_1137)" stroke-linecap="round"/>
<path d="M44.3109 218.503V229.068H54.877" stroke="url(#paint13_linear_55_1137)" stroke-linecap="round"/>
<path d="M44.5342 218.503V228.843H33.7442" stroke="url(#paint14_linear_55_1137)" stroke-linecap="round"/>
<path d="M44.5342 239.184V228.843H33.7442" stroke="url(#paint15_linear_55_1137)" stroke-linecap="round"/>
<path d="M44.5362 239.184V228.843H55.3262" stroke="url(#paint16_linear_55_1137)" stroke-linecap="round"/>
</g>
</g>
<defs>
<radialGradient id="paint0_radial_55_1137" cx="0" cy="0" r="1" gradientUnits="userSpaceOnUse" gradientTransform="translate(207.962 188) rotate(90) scale(499.897 550.52)">
<stop stop-color="white" stop-opacity="0.46"/>
<stop offset="0.54" stop-color="white" stop-opacity="0"/>
</radialGradient>
<linearGradient id="paint1_linear_55_1137" x1="330.564" y1="177.59" x2="341.403" y2="188.014" gradientUnits="userSpaceOnUse">
<stop offset="0.0394381" stop-color="#EBEBEB"/>
<stop offset="0.55"/>
<stop offset="1" stop-color="#EBEBEB"/>
</linearGradient>
<linearGradient id="paint2_linear_55_1137" x1="331.066" y1="177.59" x2="320.45" y2="188.243" gradientUnits="userSpaceOnUse">
<stop offset="0.0394381" stop-color="#EBEBEB"/>
<stop offset="0.55"/>
<stop offset="1" stop-color="#EBEBEB"/>
</linearGradient>
<linearGradient id="paint3_linear_55_1137" x1="331.066" y1="198.271" x2="320.45" y2="187.617" gradientUnits="userSpaceOnUse">
<stop offset="0.0394381" stop-color="#EBEBEB"/>
<stop offset="0.55"/>
<stop offset="1" stop-color="#EBEBEB"/>
</linearGradient>
<linearGradient id="paint4_linear_55_1137" x1="330.785" y1="198.271" x2="341.402" y2="187.617" gradientUnits="userSpaceOnUse">
<stop offset="0.0394381" stop-color="#EBEBEB"/>
<stop offset="0.55"/>
<stop offset="1" stop-color="#EBEBEB"/>
</linearGradient>
<linearGradient id="paint5_linear_55_1137" x1="289.651" y1="95.7632" x2="300.49" y2="106.187" gradientUnits="userSpaceOnUse">
<stop offset="0.0394381" stop-color="#EBEBEB"/>
<stop offset="0.55"/>
<stop offset="1" stop-color="#EBEBEB"/>
</linearGradient>
<linearGradient id="paint6_linear_55_1137" x1="290.153" y1="95.7632" x2="279.537" y2="106.417" gradientUnits="userSpaceOnUse">
<stop offset="0.0394381" stop-color="#EBEBEB"/>
<stop offset="0.55"/>
<stop offset="1" stop-color="#EBEBEB"/>
</linearGradient>
<linearGradient id="paint7_linear_55_1137" x1="290.153" y1="116.445" x2="279.537" y2="105.791" gradientUnits="userSpaceOnUse">
<stop offset="0.0394381" stop-color="#EBEBEB"/>
<stop offset="0.55"/>
<stop offset="1" stop-color="#EBEBEB"/>
</linearGradient>
<linearGradient id="paint8_linear_55_1137" x1="289.872" y1="116.445" x2="300.489" y2="105.791" gradientUnits="userSpaceOnUse">
<stop offset="0.0394381" stop-color="#EBEBEB"/>
<stop offset="0.55"/>
<stop offset="1" stop-color="#EBEBEB"/>
</linearGradient>
<linearGradient id="paint9_linear_55_1137" x1="85.0861" y1="136.677" x2="95.9251" y2="147.1" gradientUnits="userSpaceOnUse">
<stop offset="0.0394381" stop-color="#EBEBEB"/>
<stop offset="0.55"/>
<stop offset="1" stop-color="#EBEBEB"/>
</linearGradient>
<linearGradient id="paint10_linear_55_1137" x1="85.5882" y1="136.677" x2="74.9712" y2="147.33" gradientUnits="userSpaceOnUse">
<stop offset="0.0394381" stop-color="#EBEBEB"/>
<stop offset="0.55"/>
<stop offset="1" stop-color="#EBEBEB"/>
</linearGradient>
<linearGradient id="paint11_linear_55_1137" x1="85.5882" y1="157.358" x2="74.9712" y2="146.704" gradientUnits="userSpaceOnUse">
<stop offset="0.0394381" stop-color="#EBEBEB"/>
<stop offset="0.55"/>
<stop offset="1" stop-color="#EBEBEB"/>
</linearGradient>
<linearGradient id="paint12_linear_55_1137" x1="85.3073" y1="157.358" x2="95.9233" y2="146.704" gradientUnits="userSpaceOnUse">
<stop offset="0.0394381" stop-color="#EBEBEB"/>
<stop offset="0.55"/>
<stop offset="1" stop-color="#EBEBEB"/>
</linearGradient>
<linearGradient id="paint13_linear_55_1137" x1="44.1739" y1="218.503" x2="55.0129" y2="228.926" gradientUnits="userSpaceOnUse">
<stop offset="0.0394381" stop-color="#EBEBEB"/>
<stop offset="0.55"/>
<stop offset="1" stop-color="#EBEBEB"/>
</linearGradient>
<linearGradient id="paint14_linear_55_1137" x1="44.6742" y1="218.503" x2="34.0582" y2="229.156" gradientUnits="userSpaceOnUse">
<stop offset="0.0394381" stop-color="#EBEBEB"/>
<stop offset="0.55"/>
<stop offset="1" stop-color="#EBEBEB"/>
</linearGradient>
<linearGradient id="paint15_linear_55_1137" x1="44.6742" y1="239.184" x2="34.0582" y2="228.53" gradientUnits="userSpaceOnUse">
<stop offset="0.0394381" stop-color="#EBEBEB"/>
<stop offset="0.55"/>
<stop offset="1" stop-color="#EBEBEB"/>
</linearGradient>
<linearGradient id="paint16_linear_55_1137" x1="44.3962" y1="239.184" x2="55.0122" y2="228.53" gradientUnits="userSpaceOnUse">
<stop offset="0.0394381" stop-color="#EBEBEB"/>
<stop offset="0.55"/>
<stop offset="1" stop-color="#EBEBEB"/>
</linearGradient>
<clipPath id="clip0_55_1137">
<rect width="415" height="376" fill="white" transform="matrix(-1 0 0 1 415 0)"/>
</clipPath>
</defs>
</svg>
