<svg width="114" height="138" viewBox="0 0 114 138" fill="none" xmlns="http://www.w3.org/2000/svg">
<g filter="url(#filter0_dddd_62_6)">
<circle cx="57" cy="57" r="36" fill="url(#paint0_linear_62_6)"/>
</g>
<circle cx="57" cy="57" r="45.5" stroke="url(#paint1_linear_62_6)" stroke-opacity="0.3"/>
<circle cx="57" cy="57" r="56.5" transform="rotate(90 57 57)" stroke="url(#paint2_linear_62_6)" stroke-opacity="0.3"/>
<g clip-path="url(#clip0_62_6)">
<path d="M50.9125 45.2915L51.0715 45.8951C51.1525 46.208 51.3172 46.4936 51.5484 46.7219C51.7796 46.9503 52.0687 47.113 52.3854 47.193L52.9964 47.35L52.3854 47.5036C52.0684 47.5842 51.7792 47.7476 51.548 47.9766C51.3169 48.2055 51.1523 48.4916 51.0715 48.805L50.9125 49.4086L50.7536 48.805C50.6728 48.4916 50.5082 48.2055 50.277 47.9766C50.0458 47.7476 49.7566 47.5842 49.4397 47.5036L48.8286 47.35L49.4397 47.193C49.7564 47.113 50.0455 46.9503 50.2766 46.7219C50.5078 46.4936 50.6725 46.208 50.7536 45.8951L50.9125 45.2915Z" fill="white"/>
<path d="M49.2768 45.061L49.3297 45.2669C49.3578 45.3716 49.4135 45.4671 49.491 45.5437C49.5686 45.6203 49.6652 45.6753 49.7712 45.703L49.9796 45.7554L49.7712 45.8077C49.6652 45.8355 49.5686 45.8904 49.491 45.967C49.4135 46.0436 49.3578 46.1391 49.3297 46.2438L49.2768 46.4462L49.2308 46.2334C49.2027 46.1287 49.1471 46.0332 49.0695 45.9566C48.992 45.88 48.8953 45.825 48.7893 45.7972L48.5845 45.7449L48.7893 45.6926C48.8953 45.6648 48.992 45.6098 49.0695 45.5332C49.1471 45.4566 49.2027 45.3611 49.2308 45.2564L49.2768 45.061Z" fill="white"/>
<path d="M56.2526 58.0195C58.8177 58.0195 60.8972 55.9653 60.8972 53.4314C60.8972 50.8974 58.8177 48.8433 56.2526 48.8433C53.6874 48.8433 51.6079 50.8974 51.6079 53.4314C51.6079 55.9653 53.6874 58.0195 56.2526 58.0195Z" fill="white"/>
<path d="M66.6686 59.621C68.1746 59.621 69.3954 58.4151 69.3954 56.9274C69.3954 55.4398 68.1746 54.2339 66.6686 54.2339C65.1627 54.2339 63.9419 55.4398 63.9419 56.9274C63.9419 58.4151 65.1627 59.621 66.6686 59.621Z" fill="white"/>
<path d="M45.9284 59.621C47.4343 59.621 48.6551 58.4151 48.6551 56.9274C48.6551 55.4398 47.4343 54.2339 45.9284 54.2339C44.4225 54.2339 43.2017 55.4398 43.2017 56.9274C43.2017 58.4151 44.4225 59.621 45.9284 59.621Z" fill="white"/>
<path d="M63.3309 66.369V72.9982H49.6689V66.369C49.6689 64.5793 50.3886 62.863 51.6697 61.5975C52.9507 60.3321 54.6882 59.6211 56.4999 59.6211C57.3965 59.6186 58.2848 59.7908 59.1139 60.1278C59.943 60.4649 60.6967 60.9602 61.3318 61.5855C61.9685 62.2127 62.473 62.9584 62.8162 63.7795C63.1593 64.6006 63.3343 65.4807 63.3309 66.369Z" fill="white"/>
<path d="M70.6284 67.667C70.2456 68.1316 69.8389 68.5765 69.4098 68.9998C68.1376 70.2573 66.6844 71.3225 65.0972 72.1609V66.3725C65.0966 64.9488 64.7321 63.5483 64.0376 62.3008C65.812 62.3233 67.507 63.0308 68.7599 64.2721C69.1215 64.6194 69.4425 65.0056 69.7171 65.4235C70.1559 66.1106 70.4646 66.8708 70.6284 67.667Z" fill="white"/>
<path d="M48.952 62.3077C48.2594 63.5534 47.895 64.9512 47.8924 66.3725V72.1574C46.3059 71.321 44.8538 70.2569 43.5833 68.9997C43.0351 68.4576 42.522 67.8819 42.0469 67.2761C42.2584 66.5025 42.6103 65.7731 43.0853 65.1234C43.7151 64.2478 44.5484 63.5342 45.5151 63.0424C46.4818 62.5507 47.5538 62.2951 48.6412 62.2973C48.7507 62.2833 48.8531 62.3007 48.952 62.3077Z" fill="white"/>
<path d="M68.7705 44.1399L69.4098 43.5084C67.7175 41.8285 65.7058 40.4955 63.4903 39.586C61.2749 38.6765 58.8993 38.2084 56.5002 38.2085C54.0996 38.2053 51.7221 38.6713 49.5047 39.5797C47.2873 40.4881 45.2737 41.8209 43.58 43.5014C41.8827 45.174 40.5366 47.1612 39.6189 49.3491C38.7012 51.5369 38.23 53.8823 38.2324 56.2505C38.2266 60.242 39.5676 64.1215 42.0435 67.2759C42.5195 67.8798 43.0327 68.4542 43.58 68.996C44.8504 70.2532 46.3026 71.3173 47.8891 72.1536C48.4629 72.4571 49.0524 72.7308 49.6551 72.9736H49.6833H49.7293L50.0153 72.1292L49.6798 72.9561C51.8445 73.8161 54.1564 74.2567 56.4896 74.254C58.8239 74.2564 61.1369 73.8158 63.3029 72.9561C63.9062 72.716 64.4958 72.4434 65.0689 72.1397C66.6561 71.3013 68.1093 70.2361 69.3816 68.9786C69.8118 68.554 70.2196 68.108 70.6037 67.6423C73.2775 64.4246 74.7358 60.3889 74.7291 56.226C74.7314 53.8582 74.2605 51.5131 73.3434 49.3254C72.4264 47.1376 71.0813 45.1502 69.3851 43.477L68.7458 44.1085L68.1065 44.74C69.635 46.2471 70.8472 48.0376 71.6733 50.0087C72.4995 51.9798 72.9234 54.0927 72.9207 56.226C72.9282 59.9767 71.6145 63.6131 69.205 66.5118C68.8617 66.9296 68.4962 67.329 68.11 67.7086C66.9639 68.8424 65.6547 69.8029 64.2248 70.5591C63.7157 70.8416 63.191 71.0956 62.653 71.3197C60.7014 72.0941 58.6174 72.4909 56.5143 72.4886C54.4123 72.4912 52.3294 72.0944 50.3792 71.3197H50.3544H50.3085L50.0224 72.1676L50.3756 71.3407C49.8331 71.1217 49.3026 70.8748 48.7862 70.601C47.356 69.848 46.0466 68.8897 44.9009 67.7574C44.4062 67.2697 43.9438 66.7511 43.5164 66.2048C41.2692 63.3614 40.0483 59.8577 40.0479 56.2505C40.0449 54.1168 40.469 52.0035 41.2958 50.0323C42.1226 48.0611 43.3358 46.2708 44.8656 44.7645C46.3905 43.2533 48.2028 42.0548 50.1983 41.2381C52.1938 40.4213 54.3331 40.0024 56.4931 40.0054C58.6536 40.0029 60.7932 40.4221 62.7892 41.2388C64.7852 42.0555 66.5983 43.2536 68.1242 44.7645L68.7705 44.1399Z" fill="white"/>
<path d="M40.5529 68.375C40.6121 68.3194 40.6484 68.2441 40.6549 68.1636C40.6614 68.0831 40.6377 68.0031 40.5882 67.9389C38.0379 64.5634 36.6635 60.4625 36.6712 56.2505C36.6677 53.6771 37.1789 51.1285 38.1754 48.7508C39.1719 46.3731 40.634 44.2133 42.4779 42.3954L42.5061 42.371C44.3444 40.5571 46.5264 39.1188 48.9275 38.1382C51.3286 37.1576 53.9018 36.6539 56.5001 36.6559C59.1054 36.653 61.6856 37.1585 64.0926 38.1435C66.4996 39.1284 68.6858 40.5734 70.5258 42.3954C72.3692 44.2129 73.8311 46.3722 74.8276 48.7492C75.8241 51.1262 76.3355 53.6742 76.3325 56.247C76.3367 60.7728 74.7471 65.1592 71.8362 68.6541C71.4194 69.1566 70.9779 69.6415 70.5117 70.1021C69.1303 71.4667 67.5535 72.6235 65.8317 73.5353C65.2086 73.8638 64.5684 74.1596 63.9138 74.4216H63.8927C61.5351 75.3589 59.0167 75.8387 56.4754 75.8346C53.9423 75.8416 51.4314 75.3678 49.0793 74.439C48.4302 74.1788 47.7959 73.8841 47.179 73.5563C46.6739 73.2911 46.1865 73.005 45.7097 72.698C45.6448 72.6601 45.5693 72.6437 45.4943 72.6513C45.4193 72.6588 45.3488 72.6898 45.2929 72.7398C45.26 72.7758 45.235 72.8181 45.2195 72.8641C45.2041 72.9101 45.1985 72.9588 45.2032 73.0071C45.2078 73.0553 45.2226 73.1021 45.2465 73.1444C45.2705 73.1867 45.3031 73.2236 45.3423 73.2527C45.8333 73.5702 46.3419 73.8633 46.8611 74.1389C47.5049 74.4824 48.1676 74.7899 48.8461 75.0601H48.8709C51.2962 76.0228 53.8863 76.5155 56.5001 76.5115C59.1225 76.5149 61.721 76.0197 64.154 75.0531H64.1717C64.8492 74.7832 65.5118 74.478 66.1567 74.1389C67.939 73.1983 69.5707 72.0025 70.9991 70.5906C71.4795 70.1161 71.9387 69.6136 72.3696 69.0938C75.3681 65.4829 77.0048 60.9558 77.0001 56.2854C77.0015 53.628 76.4718 50.9964 75.4414 48.5416C74.411 46.0868 72.9002 43.857 70.9956 41.9802C69.0953 40.0993 66.8381 38.6072 64.3531 37.5894C61.8681 36.5716 59.2043 36.048 56.5142 36.0488C53.824 36.0477 51.1601 36.571 48.6751 37.5888C46.1901 38.6067 43.9328 40.099 42.0328 41.9802C40.1613 43.8258 38.6692 46.0118 37.6389 48.4176C36.5726 50.9116 36.0248 53.592 36.0283 56.2994C36.0242 60.6342 37.4336 64.855 40.0478 68.3366C40.078 68.372 40.115 68.401 40.1566 68.4221C40.1983 68.4432 40.2438 68.4559 40.2905 68.4595C40.3371 68.463 40.384 68.4574 40.4285 68.4429C40.4729 68.4284 40.514 68.4053 40.5494 68.375H40.5529Z" fill="white"/>
<path d="M36.809 74.5484L43.4399 67.9982L45.4954 70.0286L38.8545 76.5888C38.7197 76.7219 38.5596 76.8276 38.3835 76.8996C38.2074 76.9717 38.0186 77.0088 37.828 77.0088C37.6373 77.0088 37.4486 76.9717 37.2725 76.8996C37.0963 76.8276 36.9363 76.7219 36.8015 76.5888C36.6653 76.4549 36.5574 76.2957 36.4839 76.1203C36.4105 75.9449 36.3731 75.7569 36.3738 75.5671C36.3745 75.3773 36.4133 75.1895 36.488 75.0147C36.5627 74.8398 36.6718 74.6813 36.809 74.5484Z" fill="white"/>
<path d="M36.809 74.5484L43.4399 67.9982L45.4954 70.0286L38.8545 76.5888C38.7197 76.7219 38.5596 76.8276 38.3835 76.8996C38.2074 76.9717 38.0186 77.0088 37.828 77.0088C37.6373 77.0088 37.4486 76.9717 37.2725 76.8996C37.0963 76.8276 36.9363 76.7219 36.8015 76.5888C36.6653 76.4549 36.5574 76.2957 36.4839 76.1203C36.4105 75.9449 36.3731 75.7569 36.3738 75.5671C36.3745 75.3773 36.4133 75.1895 36.488 75.0147C36.5627 74.8398 36.6718 74.6813 36.809 74.5484Z" fill="white"/>
</g>
<defs>
<filter id="filter0_dddd_62_6" x="8" y="19" width="98" height="119" filterUnits="userSpaceOnUse" color-interpolation-filters="sRGB">
<feFlood flood-opacity="0" result="BackgroundImageFix"/>
<feColorMatrix in="SourceAlpha" type="matrix" values="0 0 0 0 0 0 0 0 0 0 0 0 0 0 0 0 0 0 127 0" result="hardAlpha"/>
<feOffset dy="2"/>
<feGaussianBlur stdDeviation="2"/>
<feColorMatrix type="matrix" values="0 0 0 0 0 0 0 0 0 0 0 0 0 0 0 0 0 0 0.1 0"/>
<feBlend mode="normal" in2="BackgroundImageFix" result="effect1_dropShadow_62_6"/>
<feColorMatrix in="SourceAlpha" type="matrix" values="0 0 0 0 0 0 0 0 0 0 0 0 0 0 0 0 0 0 127 0" result="hardAlpha"/>
<feOffset dy="8"/>
<feGaussianBlur stdDeviation="4"/>
<feColorMatrix type="matrix" values="0 0 0 0 0 0 0 0 0 0 0 0 0 0 0 0 0 0 0.09 0"/>
<feBlend mode="normal" in2="effect1_dropShadow_62_6" result="effect2_dropShadow_62_6"/>
<feColorMatrix in="SourceAlpha" type="matrix" values="0 0 0 0 0 0 0 0 0 0 0 0 0 0 0 0 0 0 127 0" result="hardAlpha"/>
<feOffset dy="18"/>
<feGaussianBlur stdDeviation="5.5"/>
<feColorMatrix type="matrix" values="0 0 0 0 0 0 0 0 0 0 0 0 0 0 0 0 0 0 0.05 0"/>
<feBlend mode="normal" in2="effect2_dropShadow_62_6" result="effect3_dropShadow_62_6"/>
<feColorMatrix in="SourceAlpha" type="matrix" values="0 0 0 0 0 0 0 0 0 0 0 0 0 0 0 0 0 0 127 0" result="hardAlpha"/>
<feOffset dy="32"/>
<feGaussianBlur stdDeviation="6.5"/>
<feColorMatrix type="matrix" values="0 0 0 0 0 0 0 0 0 0 0 0 0 0 0 0 0 0 0.01 0"/>
<feBlend mode="normal" in2="effect3_dropShadow_62_6" result="effect4_dropShadow_62_6"/>
<feBlend mode="normal" in="SourceGraphic" in2="effect4_dropShadow_62_6" result="shape"/>
</filter>
<linearGradient id="paint0_linear_62_6" x1="51.3038" y1="41.7247" x2="97.9192" y2="88.0649" gradientUnits="userSpaceOnUse">
<stop stop-color="#1F67E7"/>
<stop offset="1" stop-color="#1AD7BE"/>
</linearGradient>
<linearGradient id="paint1_linear_62_6" x1="18" y1="25" x2="87.5" y2="93.5" gradientUnits="userSpaceOnUse">
<stop stop-color="#848EA0" stop-opacity="0"/>
<stop offset="0.5" stop-color="#848EA0" stop-opacity="0.6"/>
<stop offset="1" stop-color="#848EA0" stop-opacity="0.1"/>
</linearGradient>
<linearGradient id="paint2_linear_62_6" x1="8.67391" y1="17.3478" x2="94.7935" y2="102.228" gradientUnits="userSpaceOnUse">
<stop stop-color="#848EA0" stop-opacity="0"/>
<stop offset="0.5" stop-color="#848EA0" stop-opacity="0.6"/>
<stop offset="1" stop-color="#848EA0" stop-opacity="0.1"/>
</linearGradient>
<clipPath id="clip0_62_6">
<rect width="41" height="41" fill="white" transform="translate(36 36)"/>
</clipPath>
</defs>
</svg>
