<svg width="623" height="509" viewBox="0 0 623 509" fill="none" xmlns="http://www.w3.org/2000/svg">
<g filter="url(#filter0_ddd_55_852)">
<rect x="-0.5" y="0.5" width="502" height="335" rx="19.5" transform="matrix(-1 0 0 1 562 13)" fill="white" stroke="#E6E8EC"/>
<rect x="-0.5" y="0.5" width="395" height="61" rx="9.5" transform="matrix(-1 0 0 1 537 268)" fill="white" stroke="#E6E8EC"/>
<rect x="-0.5" y="0.5" width="395" height="61" rx="9.5" transform="matrix(-1 0 0 1 537 191)" fill="white" stroke="#E6E8EC"/>
<rect x="-0.5" y="0.5" width="395" height="61" rx="9.5" transform="matrix(-1 0 0 1 537 114)" fill="white" stroke="#E6E8EC"/>
<rect x="-0.5" y="0.5" width="395" height="61" rx="9.5" transform="matrix(-1 0 0 1 537 37)" fill="white" stroke="#E6E8EC"/>
<path fill-rule="evenodd" clip-rule="evenodd" d="M101 159.167C94.322 159.167 90.9829 159.167 88.9075 157.091C86.8335 155.019 86.8335 151.678 86.8335 145C86.8335 138.322 86.8335 134.983 88.9075 132.907C90.9843 130.833 94.322 130.833 101 130.833C107.678 130.833 111.017 130.833 113.091 132.907C115.167 134.984 115.167 138.322 115.167 145C115.167 151.678 115.167 155.017 113.091 157.091C111.019 159.167 107.678 159.167 101 159.167ZM106.709 140.707C106.908 140.907 107.02 141.177 107.02 141.458C107.02 141.74 106.908 142.01 106.709 142.209L99.626 149.292C99.4268 149.491 99.1567 149.603 98.8752 149.603C98.5936 149.603 98.3235 149.491 98.1243 149.292L95.291 146.459C95.1866 146.362 95.1029 146.245 95.0448 146.114C94.9867 145.984 94.9555 145.843 94.953 145.7C94.9505 145.558 94.9767 145.416 95.0302 145.284C95.0836 145.152 95.1631 145.031 95.264 144.93C95.3649 144.83 95.4851 144.75 95.6174 144.697C95.7497 144.643 95.8914 144.617 96.0341 144.619C96.1767 144.622 96.3174 144.653 96.4478 144.711C96.5781 144.769 96.6954 144.853 96.7927 144.957L98.8752 147.04L105.208 140.707C105.407 140.508 105.677 140.397 105.958 140.397C106.24 140.397 106.51 140.508 106.709 140.707Z" fill="#5ED028"/>
<path fill-rule="evenodd" clip-rule="evenodd" d="M101 236.167C94.322 236.167 90.9829 236.167 88.9075 234.091C86.8335 232.019 86.8335 228.678 86.8335 222C86.8335 215.322 86.8335 211.983 88.9075 209.907C90.9843 207.833 94.322 207.833 101 207.833C107.678 207.833 111.017 207.833 113.091 209.907C115.167 211.984 115.167 215.322 115.167 222C115.167 228.678 115.167 232.017 113.091 234.091C111.019 236.167 107.678 236.167 101 236.167ZM106.709 217.707C106.908 217.907 107.02 218.177 107.02 218.458C107.02 218.74 106.908 219.01 106.709 219.209L99.626 226.292C99.4268 226.491 99.1567 226.603 98.8752 226.603C98.5936 226.603 98.3235 226.491 98.1243 226.292L95.291 223.459C95.1866 223.362 95.1029 223.245 95.0448 223.114C94.9867 222.984 94.9555 222.843 94.953 222.7C94.9505 222.558 94.9767 222.416 95.0302 222.284C95.0836 222.152 95.1631 222.031 95.264 221.93C95.3649 221.83 95.4851 221.75 95.6174 221.697C95.7497 221.643 95.8914 221.617 96.0341 221.619C96.1767 221.622 96.3174 221.653 96.4478 221.711C96.5781 221.769 96.6954 221.853 96.7927 221.957L98.8752 224.04L105.208 217.707C105.407 217.508 105.677 217.397 105.958 217.397C106.24 217.397 106.51 217.508 106.709 217.707Z" fill="#5ED028"/>
<path d="M112.738 310.737L112.738 310.738C111.81 311.667 110.58 312.16 108.706 312.412C106.818 312.666 104.353 312.667 101 312.667C97.6469 312.667 95.1823 312.666 93.2944 312.412C91.421 312.16 90.1904 311.667 89.261 310.738L89.2609 310.737C88.3325 309.81 87.8401 308.58 87.5883 306.706C87.3346 304.818 87.3335 302.353 87.3335 299C87.3335 295.647 87.3346 293.182 87.5883 291.294C87.8401 289.421 88.3324 288.19 89.261 287.261C90.1911 286.332 91.4218 285.84 93.2949 285.588C95.1827 285.334 97.6469 285.333 101 285.333C104.353 285.333 106.818 285.334 108.706 285.588C110.579 285.84 111.809 286.332 112.738 287.261C113.667 288.191 114.16 289.422 114.412 291.295C114.666 293.182 114.667 295.647 114.667 299C114.667 302.353 114.666 304.818 114.412 306.705C114.16 308.579 113.667 309.809 112.738 310.737ZM88.9075 311.091C90.9829 313.167 94.322 313.167 101 313.167C107.678 313.167 111.019 313.167 113.091 311.091H88.9075Z" stroke="#848EA0"/>
<path fill-rule="evenodd" clip-rule="evenodd" d="M101 82.1666C94.322 82.1666 90.9829 82.1666 88.9075 80.0912C86.8335 78.0186 86.8335 74.6781 86.8335 67.9999C86.8335 61.3218 86.8335 57.9827 88.9075 55.9073C90.9843 53.8333 94.322 53.8333 101 53.8333C107.678 53.8333 111.017 53.8333 113.091 55.9073C115.167 57.9841 115.167 61.3218 115.167 67.9999C115.167 74.6781 115.167 78.0172 113.091 80.0912C111.019 82.1666 107.678 82.1666 101 82.1666ZM106.709 63.7074C106.908 63.9066 107.02 64.1767 107.02 64.4583C107.02 64.7398 106.908 65.0099 106.709 65.2091L99.626 72.2924C99.4268 72.4914 99.1567 72.6032 98.8752 72.6032C98.5936 72.6032 98.3235 72.4914 98.1243 72.2924L95.291 69.4591C95.1866 69.3618 95.1029 69.2445 95.0448 69.1142C94.9867 68.9838 94.9555 68.8432 94.953 68.7005C94.9505 68.5578 94.9767 68.4161 95.0302 68.2838C95.0836 68.1515 95.1631 68.0313 95.264 67.9304C95.3649 67.8296 95.4851 67.75 95.6174 67.6966C95.7497 67.6431 95.8914 67.6169 96.0341 67.6194C96.1767 67.6219 96.3174 67.6532 96.4478 67.7112C96.5781 67.7693 96.6954 67.853 96.7927 67.9574L98.8752 70.0399L105.208 63.7074C105.407 63.5084 105.677 63.3967 105.958 63.3967C106.24 63.3967 106.51 63.5084 106.709 63.7074Z" fill="#5ED028"/>
<path d="M162.028 74V62.201L162.389 62.353C162.224 62.7077 161.939 63.056 161.534 63.398C161.129 63.74 160.66 64.0377 160.128 64.291C159.596 64.5317 159.032 64.7027 158.437 64.804V62.866C158.994 62.7773 159.539 62.6127 160.071 62.372C160.603 62.1187 161.078 61.8147 161.496 61.46C161.914 61.0927 162.224 60.7127 162.427 60.32H163.985V74H162.028ZM165.881 69.687V67.977H172.588V69.687H165.881ZM185.153 74.19C184.203 74.19 183.322 74.019 182.512 73.677C181.701 73.3223 180.998 72.8347 180.403 72.214C179.82 71.5807 179.364 70.8333 179.035 69.972C178.705 69.1107 178.541 68.167 178.541 67.141C178.541 66.115 178.699 65.1777 179.016 64.329C179.345 63.4677 179.801 62.7267 180.384 62.106C180.979 61.4727 181.682 60.985 182.493 60.643C183.303 60.301 184.184 60.13 185.134 60.13C186.198 60.13 187.154 60.3453 188.003 60.776C188.851 61.194 189.542 61.7893 190.074 62.562C190.618 63.3347 190.954 64.234 191.081 65.26H189.105C188.94 64.1833 188.503 63.3473 187.794 62.752C187.097 62.144 186.217 61.84 185.153 61.84C184.253 61.84 183.455 62.0617 182.759 62.505C182.075 62.9357 181.543 63.55 181.163 64.348C180.783 65.1333 180.593 66.0643 180.593 67.141C180.593 68.205 180.783 69.1423 181.163 69.953C181.555 70.751 182.094 71.3717 182.778 71.815C183.462 72.2583 184.253 72.48 185.153 72.48C186.217 72.48 187.103 72.1823 187.813 71.587C188.535 70.979 188.972 70.1367 189.124 69.06H191.119C190.979 70.0987 190.637 71.0043 190.093 71.777C189.548 72.537 188.851 73.1323 188.003 73.563C187.167 73.981 186.217 74.19 185.153 74.19ZM193.249 74V64.31H195.13V66.723H195.225V74H193.249ZM195.225 68.946L194.978 66.647C195.206 65.8237 195.599 65.1967 196.156 64.766C196.714 64.3353 197.379 64.12 198.151 64.12C198.443 64.12 198.645 64.1453 198.759 64.196V66.058C198.696 66.0327 198.607 66.02 198.493 66.02C198.379 66.0073 198.24 66.001 198.075 66.001C197.125 66.001 196.41 66.248 195.928 66.742C195.46 67.236 195.225 67.9707 195.225 68.946ZM204.424 74.19C203.449 74.19 202.588 73.9747 201.84 73.544C201.106 73.1133 200.529 72.518 200.111 71.758C199.693 70.998 199.484 70.124 199.484 69.136C199.484 68.1353 199.687 67.2613 200.092 66.514C200.51 65.754 201.093 65.165 201.84 64.747C202.588 64.329 203.443 64.12 204.405 64.12C205.343 64.12 206.153 64.3227 206.837 64.728C207.534 65.1207 208.066 65.6717 208.433 66.381C208.813 67.0903 209.003 67.9327 209.003 68.908C209.003 69.06 208.997 69.2057 208.984 69.345C208.984 69.4717 208.972 69.6047 208.946 69.744H200.814V68.262H207.559L207.065 68.851C207.065 67.8123 206.831 67.0207 206.362 66.476C205.894 65.9313 205.241 65.659 204.405 65.659C203.506 65.659 202.79 65.9693 202.258 66.59C201.739 67.198 201.479 68.0467 201.479 69.136C201.479 70.238 201.739 71.0993 202.258 71.72C202.79 72.3407 203.525 72.651 204.462 72.651C205.032 72.651 205.526 72.537 205.944 72.309C206.362 72.0683 206.673 71.72 206.875 71.264H208.737C208.421 72.176 207.882 72.8917 207.122 73.411C206.375 73.9303 205.476 74.19 204.424 74.19ZM216.917 74C216.854 73.7593 216.81 73.4933 216.784 73.202C216.772 72.9107 216.765 72.556 216.765 72.138H216.67V67.521C216.67 66.9003 216.512 66.438 216.195 66.134C215.891 65.8173 215.404 65.659 214.732 65.659C214.086 65.659 213.567 65.7857 213.174 66.039C212.794 66.2923 212.573 66.6533 212.509 67.122H210.628C210.717 66.21 211.129 65.4817 211.863 64.937C212.598 64.3923 213.58 64.12 214.808 64.12C216.075 64.12 217.025 64.4177 217.658 65.013C218.292 65.5957 218.608 66.457 218.608 67.597V72.138C218.608 72.4293 218.627 72.727 218.665 73.031C218.703 73.335 218.76 73.658 218.836 74H216.917ZM213.573 74.19C212.585 74.19 211.8 73.9493 211.217 73.468C210.635 72.974 210.343 72.309 210.343 71.473C210.343 70.6117 210.647 69.934 211.255 69.44C211.876 68.9333 212.763 68.5913 213.915 68.414L217.107 67.901V69.288L214.219 69.744C213.573 69.8453 213.086 70.0163 212.756 70.257C212.44 70.4977 212.281 70.846 212.281 71.302C212.281 71.7453 212.427 72.081 212.718 72.309C213.022 72.5243 213.459 72.632 214.029 72.632C214.789 72.632 215.416 72.4483 215.91 72.081C216.417 71.7137 216.67 71.2513 216.67 70.694L216.917 72.1C216.689 72.7713 216.284 73.2907 215.701 73.658C215.119 74.0127 214.409 74.19 213.573 74.19ZM225.019 74.19C223.891 74.19 223.062 73.9303 222.53 73.411C222.01 72.879 221.751 72.1 221.751 71.074V62.087L223.708 61.346V71.093C223.708 71.5997 223.841 71.9733 224.107 72.214C224.373 72.4547 224.803 72.575 225.399 72.575C225.627 72.575 225.829 72.556 226.007 72.518C226.184 72.48 226.336 72.4357 226.463 72.385V73.981C226.323 74.0443 226.127 74.095 225.874 74.133C225.62 74.171 225.335 74.19 225.019 74.19ZM219.813 65.887V64.31H226.463V65.887H219.813ZM228.299 74V64.31H230.275V74H228.299ZM228.204 62.41V60.187H230.389V62.41H228.204ZM235.675 74L231.723 64.31H233.832L237.062 73.107H236.131L239.323 64.31H241.356L237.423 74H235.675ZM246.896 74.19C245.921 74.19 245.059 73.9747 244.312 73.544C243.577 73.1133 243.001 72.518 242.583 71.758C242.165 70.998 241.956 70.124 241.956 69.136C241.956 68.1353 242.159 67.2613 242.564 66.514C242.982 65.754 243.565 65.165 244.312 64.747C245.059 64.329 245.914 64.12 246.877 64.12C247.814 64.12 248.625 64.3227 249.309 64.728C250.006 65.1207 250.538 65.6717 250.905 66.381C251.285 67.0903 251.475 67.9327 251.475 68.908C251.475 69.06 251.469 69.2057 251.456 69.345C251.456 69.4717 251.443 69.6047 251.418 69.744H243.286V68.262H250.031L249.537 68.851C249.537 67.8123 249.303 67.0207 248.834 66.476C248.365 65.9313 247.713 65.659 246.877 65.659C245.978 65.659 245.262 65.9693 244.73 66.59C244.211 67.198 243.951 68.0467 243.951 69.136C243.951 70.238 244.211 71.0993 244.73 71.72C245.262 72.3407 245.997 72.651 246.934 72.651C247.504 72.651 247.998 72.537 248.416 72.309C248.834 72.0683 249.144 71.72 249.347 71.264H251.209C250.892 72.176 250.354 72.8917 249.594 73.411C248.847 73.9303 247.947 74.19 246.896 74.19ZM258.479 74V72.328H262.07C263.16 72.328 264.091 72.1063 264.863 71.663C265.649 71.2197 266.25 70.6053 266.668 69.82C267.086 69.0347 267.295 68.1227 267.295 67.084C267.295 66.058 267.086 65.165 266.668 64.405C266.263 63.645 265.668 63.056 264.882 62.638C264.11 62.2073 263.172 61.992 262.07 61.992H258.498V60.32H262.07C263.54 60.32 264.819 60.5987 265.908 61.156C266.998 61.7133 267.84 62.505 268.435 63.531C269.043 64.5443 269.347 65.7413 269.347 67.122C269.347 68.5027 269.043 69.7123 268.435 70.751C267.827 71.777 266.979 72.575 265.889 73.145C264.813 73.715 263.546 74 262.089 74H258.479ZM257.263 74V60.32H259.277V74H257.263ZM275.674 74.19C274.699 74.19 273.838 73.9747 273.09 73.544C272.356 73.1133 271.779 72.518 271.361 71.758C270.943 70.998 270.734 70.124 270.734 69.136C270.734 68.1353 270.937 67.2613 271.342 66.514C271.76 65.754 272.343 65.165 273.09 64.747C273.838 64.329 274.693 64.12 275.655 64.12C276.593 64.12 277.403 64.3227 278.087 64.728C278.784 65.1207 279.316 65.6717 279.683 66.381C280.063 67.0903 280.253 67.9327 280.253 68.908C280.253 69.06 280.247 69.2057 280.234 69.345C280.234 69.4717 280.222 69.6047 280.196 69.744H272.064V68.262H278.809L278.315 68.851C278.315 67.8123 278.081 67.0207 277.612 66.476C277.144 65.9313 276.491 65.659 275.655 65.659C274.756 65.659 274.04 65.9693 273.508 66.59C272.989 67.198 272.729 68.0467 272.729 69.136C272.729 70.238 272.989 71.0993 273.508 71.72C274.04 72.3407 274.775 72.651 275.712 72.651C276.282 72.651 276.776 72.537 277.194 72.309C277.612 72.0683 277.923 71.72 278.125 71.264H279.987C279.671 72.176 279.132 72.8917 278.372 73.411C277.625 73.9303 276.726 74.19 275.674 74.19ZM285.808 74.19C284.541 74.19 283.534 73.9113 282.787 73.354C282.039 72.7967 281.615 72.0113 281.514 70.998H283.338C283.426 71.5553 283.68 71.986 284.098 72.29C284.528 72.5813 285.111 72.727 285.846 72.727C286.492 72.727 286.986 72.613 287.328 72.385C287.67 72.157 287.841 71.834 287.841 71.416C287.841 71.112 287.739 70.8587 287.537 70.656C287.347 70.4407 286.967 70.2633 286.397 70.124L284.839 69.763C283.863 69.5223 283.135 69.1677 282.654 68.699C282.185 68.2177 281.951 67.6287 281.951 66.932C281.951 66.058 282.274 65.374 282.92 64.88C283.578 64.3733 284.478 64.12 285.618 64.12C286.745 64.12 287.651 64.3733 288.335 64.88C289.031 65.3867 289.424 66.096 289.513 67.008H287.689C287.613 66.552 287.391 66.2037 287.024 65.963C286.669 65.7097 286.181 65.583 285.561 65.583C284.978 65.583 284.528 65.6907 284.212 65.906C283.908 66.1087 283.756 66.3937 283.756 66.761C283.756 67.065 283.87 67.3183 284.098 67.521C284.338 67.7237 284.731 67.8947 285.276 68.034L286.872 68.433C287.796 68.661 288.493 69.0347 288.962 69.554C289.43 70.0607 289.665 70.675 289.665 71.397C289.665 72.271 289.323 72.955 288.639 73.449C287.967 73.943 287.024 74.19 285.808 74.19ZM291.589 74V64.31H293.565V74H291.589ZM291.494 62.41V60.187H293.679V62.41H291.494ZM300.349 78.085C299.133 78.085 298.126 77.8063 297.328 77.249C296.543 76.7043 296.068 75.976 295.903 75.064H297.765C297.892 75.482 298.171 75.8113 298.601 76.052C299.045 76.2927 299.634 76.413 300.368 76.413C301.318 76.413 302.028 76.1787 302.496 75.71C302.965 75.2413 303.199 74.5447 303.199 73.62V71.53L303.37 71.568C303.18 72.3027 302.769 72.8853 302.135 73.316C301.502 73.734 300.742 73.943 299.855 73.943C299.007 73.943 298.259 73.7403 297.613 73.335C296.967 72.9297 296.467 72.366 296.112 71.644C295.758 70.9093 295.58 70.0543 295.58 69.079C295.58 68.091 295.764 67.2233 296.131 66.476C296.499 65.7287 297.012 65.1523 297.67 64.747C298.342 64.3417 299.121 64.139 300.007 64.139C300.919 64.139 301.673 64.3607 302.268 64.804C302.876 65.2347 303.263 65.849 303.427 66.647L303.275 66.666V64.31H305.156V73.601C305.156 74.9943 304.726 76.09 303.864 76.888C303.016 77.686 301.844 78.085 300.349 78.085ZM300.444 72.347C301.293 72.347 301.971 72.0493 302.477 71.454C302.997 70.8587 303.256 70.0417 303.256 69.003C303.256 67.9897 302.997 67.1917 302.477 66.609C301.971 66.0263 301.287 65.735 300.425 65.735C299.564 65.735 298.88 66.0327 298.373 66.628C297.867 67.2107 297.613 68.0213 297.613 69.06C297.613 70.0733 297.867 70.8777 298.373 71.473C298.893 72.0557 299.583 72.347 300.444 72.347ZM307.936 74V64.31H309.817V66.59H309.912V74H307.936ZM314.814 74V67.768C314.814 67.0967 314.643 66.5963 314.301 66.267C313.971 65.9377 313.477 65.773 312.819 65.773C312.249 65.773 311.742 65.8997 311.299 66.153C310.868 66.4063 310.526 66.7547 310.273 67.198C310.032 67.6413 309.912 68.167 309.912 68.775L309.665 66.457C309.981 65.735 310.469 65.165 311.128 64.747C311.786 64.329 312.553 64.12 313.427 64.12C314.465 64.12 315.282 64.4113 315.878 64.994C316.473 65.5767 316.771 66.3493 316.771 67.312V74H314.814ZM328.184 74.171C326.538 74.171 325.22 73.7783 324.232 72.993C323.244 72.2077 322.668 71.0867 322.503 69.63H324.46C324.574 70.58 324.954 71.302 325.6 71.796C326.246 72.29 327.12 72.537 328.222 72.537C329.147 72.537 329.844 72.366 330.312 72.024C330.794 71.682 331.034 71.1943 331.034 70.561C331.034 69.991 330.876 69.5413 330.559 69.212C330.243 68.87 329.742 68.5913 329.058 68.376L326.683 67.616C325.467 67.2233 324.574 66.7293 324.004 66.134C323.434 65.5387 323.149 64.785 323.149 63.873C323.149 63.1003 323.339 62.4353 323.719 61.878C324.112 61.3207 324.657 60.89 325.353 60.586C326.063 60.2693 326.886 60.111 327.823 60.111C329.267 60.111 330.42 60.4783 331.281 61.213C332.155 61.935 332.656 62.942 332.782 64.234H330.825C330.673 63.3727 330.344 62.7457 329.837 62.353C329.331 61.9477 328.634 61.745 327.747 61.745C326.911 61.745 326.259 61.9097 325.79 62.239C325.322 62.5683 325.087 63.0307 325.087 63.626C325.087 64.1073 325.239 64.5127 325.543 64.842C325.86 65.1587 326.379 65.431 327.101 65.659L329.59 66.457C330.743 66.8243 331.592 67.3247 332.136 67.958C332.694 68.5913 332.972 69.3893 332.972 70.352C332.972 71.568 332.554 72.5117 331.718 73.183C330.882 73.8417 329.704 74.171 328.184 74.171ZM335.044 74V60.073H337.02V74H335.044ZM341.333 74L336.564 68.965L341.181 64.31H343.67L338.426 69.402L338.521 68.509L343.86 74H341.333ZM345.286 74V64.31H347.262V74H345.286ZM345.191 62.41V60.187H347.376V62.41H345.191ZM350.036 74V60.32H352.012V74H350.036ZM354.786 74V60.32H356.762V74H354.786ZM363.032 74.19C361.766 74.19 360.759 73.9113 360.011 73.354C359.264 72.7967 358.84 72.0113 358.738 70.998H360.562C360.651 71.5553 360.904 71.986 361.322 72.29C361.753 72.5813 362.336 72.727 363.07 72.727C363.716 72.727 364.21 72.613 364.552 72.385C364.894 72.157 365.065 71.834 365.065 71.416C365.065 71.112 364.964 70.8587 364.761 70.656C364.571 70.4407 364.191 70.2633 363.621 70.124L362.063 69.763C361.088 69.5223 360.36 69.1677 359.878 68.699C359.41 68.2177 359.175 67.6287 359.175 66.932C359.175 66.058 359.498 65.374 360.144 64.88C360.803 64.3733 361.702 64.12 362.842 64.12C363.97 64.12 364.875 64.3733 365.559 64.88C366.256 65.3867 366.649 66.096 366.737 67.008H364.913C364.837 66.552 364.616 66.2037 364.248 65.963C363.894 65.7097 363.406 65.583 362.785 65.583C362.203 65.583 361.753 65.6907 361.436 65.906C361.132 66.1087 360.98 66.3937 360.98 66.761C360.98 67.065 361.094 67.3183 361.322 67.521C361.563 67.7237 361.956 67.8947 362.5 68.034L364.096 68.433C365.021 68.661 365.718 69.0347 366.186 69.554C366.655 70.0607 366.889 70.675 366.889 71.397C366.889 72.271 366.547 72.955 365.863 73.449C365.192 73.943 364.248 74.19 363.032 74.19ZM376.307 74V61.973H371.69V60.32H382.938V61.973H378.321V74H376.307ZM387.021 74.19C386.046 74.19 385.184 73.9747 384.437 73.544C383.702 73.1133 383.126 72.518 382.708 71.758C382.29 70.998 382.081 70.124 382.081 69.136C382.081 68.1353 382.284 67.2613 382.689 66.514C383.107 65.754 383.69 65.165 384.437 64.747C385.184 64.329 386.039 64.12 387.002 64.12C387.939 64.12 388.75 64.3227 389.434 64.728C390.131 65.1207 390.663 65.6717 391.03 66.381C391.41 67.0903 391.6 67.9327 391.6 68.908C391.6 69.06 391.594 69.2057 391.581 69.345C391.581 69.4717 391.568 69.6047 391.543 69.744H383.411V68.262H390.156L389.662 68.851C389.662 67.8123 389.428 67.0207 388.959 66.476C388.49 65.9313 387.838 65.659 387.002 65.659C386.103 65.659 385.387 65.9693 384.855 66.59C384.336 67.198 384.076 68.0467 384.076 69.136C384.076 70.238 384.336 71.0993 384.855 71.72C385.387 72.3407 386.122 72.651 387.059 72.651C387.629 72.651 388.123 72.537 388.541 72.309C388.959 72.0683 389.269 71.72 389.472 71.264H391.334C391.017 72.176 390.479 72.8917 389.719 73.411C388.972 73.9303 388.072 74.19 387.021 74.19ZM397.154 74.19C395.888 74.19 394.881 73.9113 394.133 73.354C393.386 72.7967 392.962 72.0113 392.86 70.998H394.684C394.773 71.5553 395.026 71.986 395.444 72.29C395.875 72.5813 396.458 72.727 397.192 72.727C397.838 72.727 398.332 72.613 398.674 72.385C399.016 72.157 399.187 71.834 399.187 71.416C399.187 71.112 399.086 70.8587 398.883 70.656C398.693 70.4407 398.313 70.2633 397.743 70.124L396.185 69.763C395.21 69.5223 394.482 69.1677 394 68.699C393.532 68.2177 393.297 67.6287 393.297 66.932C393.297 66.058 393.62 65.374 394.266 64.88C394.925 64.3733 395.824 64.12 396.964 64.12C398.092 64.12 398.997 64.3733 399.681 64.88C400.378 65.3867 400.771 66.096 400.859 67.008H399.035C398.959 66.552 398.738 66.2037 398.37 65.963C398.016 65.7097 397.528 65.583 396.907 65.583C396.325 65.583 395.875 65.6907 395.558 65.906C395.254 66.1087 395.102 66.3937 395.102 66.761C395.102 67.065 395.216 67.3183 395.444 67.521C395.685 67.7237 396.078 67.8947 396.622 68.034L398.218 68.433C399.143 68.661 399.84 69.0347 400.308 69.554C400.777 70.0607 401.011 70.675 401.011 71.397C401.011 72.271 400.669 72.955 399.985 73.449C399.314 73.943 398.37 74.19 397.154 74.19ZM406.948 74.19C405.82 74.19 404.991 73.9303 404.459 73.411C403.939 72.879 403.68 72.1 403.68 71.074V62.087L405.637 61.346V71.093C405.637 71.5997 405.77 71.9733 406.036 72.214C406.302 72.4547 406.732 72.575 407.328 72.575C407.556 72.575 407.758 72.556 407.936 72.518C408.113 72.48 408.265 72.4357 408.392 72.385V73.981C408.252 74.0443 408.056 74.095 407.803 74.133C407.549 74.171 407.264 74.19 406.948 74.19ZM401.742 65.887V64.31H408.392V65.887H401.742Z" fill="#848EA0"/>
<path d="M158 68.281H408.885V69.003H158V68.281Z" fill="#848EA0"/>
<path d="M158.665 151V149.347C159.995 148.258 161.103 147.308 161.99 146.497C162.889 145.686 163.605 144.964 164.137 144.331C164.669 143.698 165.049 143.121 165.277 142.602C165.505 142.083 165.619 141.563 165.619 141.044C165.619 140.335 165.41 139.784 164.992 139.391C164.587 138.986 164.023 138.783 163.301 138.783C162.554 138.783 161.946 139.005 161.477 139.448C161.008 139.879 160.717 140.493 160.603 141.291H158.551C158.678 140.037 159.165 139.03 160.014 138.27C160.875 137.51 162.009 137.13 163.415 137.13C164.758 137.13 165.815 137.485 166.588 138.194C167.373 138.903 167.766 139.879 167.766 141.12C167.766 141.753 167.646 142.387 167.405 143.02C167.177 143.641 166.797 144.293 166.265 144.977C165.733 145.648 165.017 146.396 164.118 147.219C163.231 148.03 162.129 148.954 160.812 149.993L160.337 149.347H168.013V151H158.665ZM168.572 146.687V144.977H175.279V146.687H168.572ZM187.121 151.19C185.373 151.19 184.03 150.677 183.093 149.651C182.156 148.625 181.687 147.162 181.687 145.262V137.32H183.701V145.49C183.701 146.795 183.999 147.789 184.594 148.473C185.189 149.144 186.032 149.48 187.121 149.48C188.236 149.48 189.091 149.144 189.686 148.473C190.281 147.802 190.579 146.807 190.579 145.49V137.32H192.593V145.3C192.593 147.175 192.118 148.625 191.168 149.651C190.231 150.677 188.882 151.19 187.121 151.19ZM203.699 151L199.481 144.73L194.351 137.32H196.707L200.697 143.248L206.055 151H203.699ZM199.747 143.267L203.889 137.32H206.055L200.64 144.92L199.747 143.267ZM200.374 144.996L196.213 151H194.047L199.5 143.343L200.374 144.996ZM207.043 152.273L211.926 136.617H213.636L208.753 152.273H207.043ZM220.779 151.19C219.031 151.19 217.689 150.677 216.751 149.651C215.814 148.625 215.345 147.162 215.345 145.262V137.32H217.359V145.49C217.359 146.795 217.657 147.789 218.252 148.473C218.848 149.144 219.69 149.48 220.779 149.48C221.894 149.48 222.749 149.144 223.344 148.473C223.94 147.802 224.237 146.807 224.237 145.49V137.32H226.251V145.3C226.251 147.175 225.776 148.625 224.826 149.651C223.889 150.677 222.54 151.19 220.779 151.19ZM228.93 151V137.32H230.944V151H228.93ZM238.719 151V149.328H242.31C243.399 149.328 244.33 149.106 245.103 148.663C245.888 148.22 246.49 147.605 246.908 146.82C247.326 146.035 247.535 145.123 247.535 144.084C247.535 143.058 247.326 142.165 246.908 141.405C246.502 140.645 245.907 140.056 245.122 139.638C244.349 139.207 243.412 138.992 242.31 138.992H238.738V137.32H242.31C243.779 137.32 245.058 137.599 246.148 138.156C247.237 138.713 248.079 139.505 248.675 140.531C249.283 141.544 249.587 142.741 249.587 144.122C249.587 145.503 249.283 146.712 248.675 147.751C248.067 148.777 247.218 149.575 246.129 150.145C245.052 150.715 243.785 151 242.329 151H238.719ZM237.503 151V137.32H239.517V151H237.503ZM255.914 151.19C254.938 151.19 254.077 150.975 253.33 150.544C252.595 150.113 252.019 149.518 251.601 148.758C251.183 147.998 250.974 147.124 250.974 146.136C250.974 145.135 251.176 144.261 251.582 143.514C252 142.754 252.582 142.165 253.33 141.747C254.077 141.329 254.932 141.12 255.895 141.12C256.832 141.12 257.643 141.323 258.327 141.728C259.023 142.121 259.555 142.672 259.923 143.381C260.303 144.09 260.493 144.933 260.493 145.908C260.493 146.06 260.486 146.206 260.474 146.345C260.474 146.472 260.461 146.605 260.436 146.744H252.304V145.262H259.049L258.555 145.851C258.555 144.812 258.32 144.021 257.852 143.476C257.383 142.931 256.731 142.659 255.895 142.659C254.995 142.659 254.28 142.969 253.748 143.59C253.228 144.198 252.969 145.047 252.969 146.136C252.969 147.238 253.228 148.099 253.748 148.72C254.28 149.341 255.014 149.651 255.952 149.651C256.522 149.651 257.016 149.537 257.434 149.309C257.852 149.068 258.162 148.72 258.365 148.264H260.227C259.91 149.176 259.372 149.892 258.612 150.411C257.864 150.93 256.965 151.19 255.914 151.19ZM266.047 151.19C264.78 151.19 263.773 150.911 263.026 150.354C262.279 149.797 261.854 149.011 261.753 147.998H263.577C263.666 148.555 263.919 148.986 264.337 149.29C264.768 149.581 265.35 149.727 266.085 149.727C266.731 149.727 267.225 149.613 267.567 149.385C267.909 149.157 268.08 148.834 268.08 148.416C268.08 148.112 267.979 147.859 267.776 147.656C267.586 147.441 267.206 147.263 266.636 147.124L265.078 146.763C264.103 146.522 263.374 146.168 262.893 145.699C262.424 145.218 262.19 144.629 262.19 143.932C262.19 143.058 262.513 142.374 263.159 141.88C263.818 141.373 264.717 141.12 265.857 141.12C266.984 141.12 267.89 141.373 268.574 141.88C269.271 142.387 269.663 143.096 269.752 144.008H267.928C267.852 143.552 267.63 143.204 267.263 142.963C266.908 142.71 266.421 142.583 265.8 142.583C265.217 142.583 264.768 142.691 264.451 142.906C264.147 143.109 263.995 143.394 263.995 143.761C263.995 144.065 264.109 144.318 264.337 144.521C264.578 144.724 264.97 144.895 265.515 145.034L267.111 145.433C268.036 145.661 268.732 146.035 269.201 146.554C269.67 147.061 269.904 147.675 269.904 148.397C269.904 149.271 269.562 149.955 268.878 150.449C268.207 150.943 267.263 151.19 266.047 151.19ZM271.828 151V141.31H273.804V151H271.828ZM271.733 139.41V137.187H273.918V139.41H271.733ZM280.589 155.085C279.373 155.085 278.366 154.806 277.568 154.249C276.782 153.704 276.307 152.976 276.143 152.064H278.005C278.131 152.482 278.41 152.811 278.841 153.052C279.284 153.293 279.873 153.413 280.608 153.413C281.558 153.413 282.267 153.179 282.736 152.71C283.204 152.241 283.439 151.545 283.439 150.62V148.53L283.61 148.568C283.42 149.303 283.008 149.885 282.375 150.316C281.741 150.734 280.981 150.943 280.095 150.943C279.246 150.943 278.499 150.74 277.853 150.335C277.207 149.93 276.706 149.366 276.352 148.644C275.997 147.909 275.82 147.054 275.82 146.079C275.82 145.091 276.003 144.223 276.371 143.476C276.738 142.729 277.251 142.152 277.91 141.747C278.581 141.342 279.36 141.139 280.247 141.139C281.159 141.139 281.912 141.361 282.508 141.804C283.116 142.235 283.502 142.849 283.667 143.647L283.515 143.666V141.31H285.396V150.601C285.396 151.994 284.965 153.09 284.104 153.888C283.255 154.686 282.083 155.085 280.589 155.085ZM280.684 149.347C281.532 149.347 282.21 149.049 282.717 148.454C283.236 147.859 283.496 147.042 283.496 146.003C283.496 144.99 283.236 144.192 282.717 143.609C282.21 143.026 281.526 142.735 280.665 142.735C279.803 142.735 279.119 143.033 278.613 143.628C278.106 144.211 277.853 145.021 277.853 146.06C277.853 147.073 278.106 147.878 278.613 148.473C279.132 149.056 279.822 149.347 280.684 149.347ZM288.175 151V141.31H290.056V143.59H290.151V151H288.175ZM295.053 151V144.768C295.053 144.097 294.882 143.596 294.54 143.267C294.211 142.938 293.717 142.773 293.058 142.773C292.488 142.773 291.981 142.9 291.538 143.153C291.107 143.406 290.765 143.755 290.512 144.198C290.271 144.641 290.151 145.167 290.151 145.775L289.904 143.457C290.221 142.735 290.708 142.165 291.367 141.747C292.026 141.329 292.792 141.12 293.666 141.12C294.705 141.12 295.522 141.411 296.117 141.994C296.712 142.577 297.01 143.349 297.01 144.312V151H295.053ZM309.488 151.19C308.538 151.19 307.657 151.019 306.847 150.677C306.036 150.322 305.333 149.835 304.738 149.214C304.155 148.581 303.699 147.833 303.37 146.972C303.04 146.111 302.876 145.167 302.876 144.141C302.876 143.115 303.034 142.178 303.351 141.329C303.68 140.468 304.136 139.727 304.719 139.106C305.314 138.473 306.017 137.985 306.828 137.643C307.638 137.301 308.519 137.13 309.469 137.13C310.533 137.13 311.489 137.345 312.338 137.776C313.186 138.194 313.877 138.789 314.409 139.562C314.953 140.335 315.289 141.234 315.416 142.26H313.44C313.275 141.183 312.838 140.347 312.129 139.752C311.432 139.144 310.552 138.84 309.488 138.84C308.588 138.84 307.79 139.062 307.094 139.505C306.41 139.936 305.878 140.55 305.498 141.348C305.118 142.133 304.928 143.064 304.928 144.141C304.928 145.205 305.118 146.142 305.498 146.953C305.89 147.751 306.429 148.372 307.113 148.815C307.797 149.258 308.588 149.48 309.488 149.48C310.552 149.48 311.438 149.182 312.148 148.587C312.87 147.979 313.307 147.137 313.459 146.06H315.454C315.314 147.099 314.972 148.004 314.428 148.777C313.883 149.537 313.186 150.132 312.338 150.563C311.502 150.981 310.552 151.19 309.488 151.19ZM317.584 151V137.32H319.56V151H317.584ZM324.462 151V144.768C324.462 144.097 324.291 143.596 323.949 143.267C323.62 142.938 323.126 142.773 322.467 142.773C321.897 142.773 321.391 142.9 320.947 143.153C320.517 143.406 320.175 143.755 319.921 144.198C319.681 144.641 319.56 145.167 319.56 145.775L319.313 143.457C319.63 142.735 320.118 142.165 320.776 141.747C321.435 141.329 322.201 141.12 323.075 141.12C324.114 141.12 324.931 141.411 325.526 141.994C326.122 142.577 326.419 143.349 326.419 144.312V151H324.462ZM334.999 151C334.936 150.759 334.892 150.493 334.866 150.202C334.854 149.911 334.847 149.556 334.847 149.138H334.752V144.521C334.752 143.9 334.594 143.438 334.277 143.134C333.973 142.817 333.486 142.659 332.814 142.659C332.168 142.659 331.649 142.786 331.256 143.039C330.876 143.292 330.655 143.653 330.591 144.122H328.71C328.799 143.21 329.211 142.482 329.945 141.937C330.68 141.392 331.662 141.12 332.89 141.12C334.157 141.12 335.107 141.418 335.74 142.013C336.374 142.596 336.69 143.457 336.69 144.597V149.138C336.69 149.429 336.709 149.727 336.747 150.031C336.785 150.335 336.842 150.658 336.918 151H334.999ZM331.655 151.19C330.667 151.19 329.882 150.949 329.299 150.468C328.717 149.974 328.425 149.309 328.425 148.473C328.425 147.612 328.729 146.934 329.337 146.44C329.958 145.933 330.845 145.591 331.997 145.414L335.189 144.901V146.288L332.301 146.744C331.655 146.845 331.168 147.016 330.838 147.257C330.522 147.498 330.363 147.846 330.363 148.302C330.363 148.745 330.509 149.081 330.8 149.309C331.104 149.524 331.541 149.632 332.111 149.632C332.871 149.632 333.498 149.448 333.992 149.081C334.499 148.714 334.752 148.251 334.752 147.694L334.999 149.1C334.771 149.771 334.366 150.291 333.783 150.658C333.201 151.013 332.491 151.19 331.655 151.19ZM339.367 151V137.32H341.343V151H339.367ZM344.117 151V137.32H346.093V151H344.117ZM353.047 151.19C352.072 151.19 351.211 150.975 350.463 150.544C349.729 150.113 349.152 149.518 348.734 148.758C348.316 147.998 348.107 147.124 348.107 146.136C348.107 145.135 348.31 144.261 348.715 143.514C349.133 142.754 349.716 142.165 350.463 141.747C351.211 141.329 352.066 141.12 353.028 141.12C353.966 141.12 354.776 141.323 355.46 141.728C356.157 142.121 356.689 142.672 357.056 143.381C357.436 144.09 357.626 144.933 357.626 145.908C357.626 146.06 357.62 146.206 357.607 146.345C357.607 146.472 357.595 146.605 357.569 146.744H349.437V145.262H356.182L355.688 145.851C355.688 144.812 355.454 144.021 354.985 143.476C354.517 142.931 353.864 142.659 353.028 142.659C352.129 142.659 351.413 142.969 350.881 143.59C350.362 144.198 350.102 145.047 350.102 146.136C350.102 147.238 350.362 148.099 350.881 148.72C351.413 149.341 352.148 149.651 353.085 149.651C353.655 149.651 354.149 149.537 354.567 149.309C354.985 149.068 355.296 148.72 355.498 148.264H357.36C357.044 149.176 356.505 149.892 355.745 150.411C354.998 150.93 354.099 151.19 353.047 151.19ZM359.648 151V141.31H361.529V143.59H361.624V151H359.648ZM366.526 151V144.768C366.526 144.097 366.355 143.596 366.013 143.267C365.683 142.938 365.189 142.773 364.531 142.773C363.961 142.773 363.454 142.9 363.011 143.153C362.58 143.406 362.238 143.755 361.985 144.198C361.744 144.641 361.624 145.167 361.624 145.775L361.377 143.457C361.693 142.735 362.181 142.165 362.84 141.747C363.498 141.329 364.265 141.12 365.139 141.12C366.177 141.12 366.994 141.411 367.59 141.994C368.185 142.577 368.483 143.349 368.483 144.312V151H366.526ZM375.218 155.085C374.002 155.085 372.995 154.806 372.197 154.249C371.411 153.704 370.936 152.976 370.772 152.064H372.634C372.76 152.482 373.039 152.811 373.47 153.052C373.913 153.293 374.502 153.413 375.237 153.413C376.187 153.413 376.896 153.179 377.365 152.71C377.833 152.241 378.068 151.545 378.068 150.62V148.53L378.239 148.568C378.049 149.303 377.637 149.885 377.004 150.316C376.37 150.734 375.61 150.943 374.724 150.943C373.875 150.943 373.128 150.74 372.482 150.335C371.836 149.93 371.335 149.366 370.981 148.644C370.626 147.909 370.449 147.054 370.449 146.079C370.449 145.091 370.632 144.223 371 143.476C371.367 142.729 371.88 142.152 372.539 141.747C373.21 141.342 373.989 141.139 374.876 141.139C375.788 141.139 376.541 141.361 377.137 141.804C377.745 142.235 378.131 142.849 378.296 143.647L378.144 143.666V141.31H380.025V150.601C380.025 151.994 379.594 153.09 378.733 153.888C377.884 154.686 376.712 155.085 375.218 155.085ZM375.313 149.347C376.161 149.347 376.839 149.049 377.346 148.454C377.865 147.859 378.125 147.042 378.125 146.003C378.125 144.99 377.865 144.192 377.346 143.609C376.839 143.026 376.155 142.735 375.294 142.735C374.432 142.735 373.748 143.033 373.242 143.628C372.735 144.211 372.482 145.021 372.482 146.06C372.482 147.073 372.735 147.878 373.242 148.473C373.761 149.056 374.451 149.347 375.313 149.347ZM386.984 151.19C386.009 151.19 385.147 150.975 384.4 150.544C383.665 150.113 383.089 149.518 382.671 148.758C382.253 147.998 382.044 147.124 382.044 146.136C382.044 145.135 382.247 144.261 382.652 143.514C383.07 142.754 383.653 142.165 384.4 141.747C385.147 141.329 386.002 141.12 386.965 141.12C387.902 141.12 388.713 141.323 389.397 141.728C390.094 142.121 390.626 142.672 390.993 143.381C391.373 144.09 391.563 144.933 391.563 145.908C391.563 146.06 391.557 146.206 391.544 146.345C391.544 146.472 391.531 146.605 391.506 146.744H383.374V145.262H390.119L389.625 145.851C389.625 144.812 389.391 144.021 388.922 143.476C388.453 142.931 387.801 142.659 386.965 142.659C386.066 142.659 385.35 142.969 384.818 143.59C384.299 144.198 384.039 145.047 384.039 146.136C384.039 147.238 384.299 148.099 384.818 148.72C385.35 149.341 386.085 149.651 387.022 149.651C387.592 149.651 388.086 149.537 388.504 149.309C388.922 149.068 389.232 148.72 389.435 148.264H391.297C390.98 149.176 390.442 149.892 389.682 150.411C388.935 150.93 388.035 151.19 386.984 151.19Z" fill="#848EA0"/>
<path d="M158 145.281H392.19V146.003H158V145.281Z" fill="#848EA0"/>
<path d="M163.643 228.19C162.706 228.19 161.876 228.019 161.154 227.677C160.445 227.335 159.868 226.841 159.425 226.195C158.994 225.536 158.728 224.738 158.627 223.801H160.698C160.825 224.7 161.135 225.384 161.629 225.853C162.123 226.309 162.782 226.537 163.605 226.537C164.365 226.537 164.973 226.328 165.429 225.91C165.885 225.492 166.113 224.916 166.113 224.181C166.113 223.434 165.891 222.826 165.448 222.357C165.005 221.888 164.371 221.654 163.548 221.654H162.009V220.039H163.491C164.226 220.039 164.796 219.843 165.201 219.45C165.606 219.057 165.809 218.538 165.809 217.892C165.809 217.233 165.613 216.72 165.22 216.353C164.827 215.973 164.264 215.783 163.529 215.783C162.845 215.783 162.256 215.986 161.762 216.391C161.281 216.796 160.989 217.385 160.888 218.158H158.817C158.906 217.335 159.153 216.625 159.558 216.03C159.976 215.422 160.527 214.953 161.211 214.624C161.908 214.295 162.699 214.13 163.586 214.13C164.46 214.13 165.22 214.276 165.866 214.567C166.525 214.858 167.031 215.276 167.386 215.821C167.753 216.366 167.937 217.005 167.937 217.74C167.937 218.373 167.791 218.937 167.5 219.431C167.209 219.925 166.822 220.311 166.341 220.59C165.872 220.856 165.347 220.989 164.764 220.989L164.688 220.59C165.423 220.59 166.056 220.755 166.588 221.084C167.133 221.401 167.551 221.838 167.842 222.395C168.133 222.94 168.279 223.567 168.279 224.276C168.279 225.061 168.076 225.752 167.671 226.347C167.278 226.93 166.734 227.386 166.037 227.715C165.34 228.032 164.542 228.19 163.643 228.19ZM169.796 223.687V221.977H176.503V223.687H169.796ZM183.045 228V214.32H188.84C189.828 214.32 190.67 214.485 191.367 214.814C192.063 215.143 192.595 215.612 192.963 216.22C193.343 216.828 193.533 217.55 193.533 218.386C193.533 219.235 193.343 219.969 192.963 220.59C192.595 221.198 192.057 221.673 191.348 222.015C190.651 222.357 189.815 222.528 188.84 222.528H184.584V220.856H188.745C189.644 220.856 190.328 220.641 190.797 220.21C191.278 219.779 191.519 219.178 191.519 218.405C191.519 217.62 191.284 217.018 190.816 216.6C190.347 216.182 189.657 215.973 188.745 215.973H185.059V228H183.045ZM195.587 228V218.31H197.468V220.723H197.563V228H195.587ZM197.563 222.946L197.316 220.647C197.544 219.824 197.937 219.197 198.494 218.766C199.052 218.335 199.717 218.12 200.489 218.12C200.781 218.12 200.983 218.145 201.097 218.196V220.058C201.034 220.033 200.945 220.02 200.831 220.02C200.717 220.007 200.578 220.001 200.413 220.001C199.463 220.001 198.748 220.248 198.266 220.742C197.798 221.236 197.563 221.971 197.563 222.946ZM207.023 228.19C206.035 228.19 205.167 227.975 204.42 227.544C203.673 227.101 203.09 226.499 202.672 225.739C202.254 224.966 202.045 224.092 202.045 223.117C202.045 222.129 202.254 221.261 202.672 220.514C203.103 219.767 203.685 219.184 204.42 218.766C205.167 218.335 206.035 218.12 207.023 218.12C208.024 218.12 208.898 218.335 209.645 218.766C210.392 219.184 210.969 219.767 211.374 220.514C211.792 221.261 212.001 222.129 212.001 223.117C212.001 224.092 211.792 224.966 211.374 225.739C210.969 226.499 210.392 227.101 209.645 227.544C208.898 227.975 208.024 228.19 207.023 228.19ZM207.023 226.575C207.618 226.575 208.131 226.429 208.562 226.138C209.005 225.847 209.354 225.441 209.607 224.922C209.86 224.403 209.987 223.795 209.987 223.098C209.987 222.059 209.708 221.242 209.151 220.647C208.606 220.039 207.897 219.735 207.023 219.735C206.162 219.735 205.452 220.039 204.895 220.647C204.35 221.255 204.078 222.072 204.078 223.098C204.078 223.795 204.198 224.403 204.439 224.922C204.692 225.441 205.041 225.847 205.484 226.138C205.94 226.429 206.453 226.575 207.023 226.575ZM219.199 228.171C218.287 228.171 217.527 227.956 216.919 227.525C216.311 227.082 215.912 226.467 215.722 225.682L215.912 225.644V228H214.031V214.32H216.007V220.533L215.798 220.476C216.013 219.741 216.431 219.165 217.052 218.747C217.685 218.329 218.445 218.12 219.332 218.12C220.206 218.12 220.959 218.329 221.593 218.747C222.239 219.165 222.733 219.748 223.075 220.495C223.429 221.242 223.607 222.116 223.607 223.117C223.607 224.13 223.423 225.017 223.056 225.777C222.688 226.537 222.175 227.126 221.517 227.544C220.858 227.962 220.085 228.171 219.199 228.171ZM218.781 226.537C219.642 226.537 220.326 226.233 220.833 225.625C221.339 225.017 221.593 224.181 221.593 223.117C221.593 222.066 221.339 221.249 220.833 220.666C220.326 220.071 219.636 219.773 218.762 219.773C217.9 219.773 217.21 220.077 216.691 220.685C216.184 221.28 215.931 222.11 215.931 223.174C215.931 224.213 216.184 225.036 216.691 225.644C217.21 226.239 217.907 226.537 218.781 226.537ZM225.683 228V214.32H227.659V228H225.683ZM234.613 228.19C233.638 228.19 232.776 227.975 232.029 227.544C231.294 227.113 230.718 226.518 230.3 225.758C229.882 224.998 229.673 224.124 229.673 223.136C229.673 222.135 229.876 221.261 230.281 220.514C230.699 219.754 231.282 219.165 232.029 218.747C232.776 218.329 233.631 218.12 234.594 218.12C235.531 218.12 236.342 218.323 237.026 218.728C237.723 219.121 238.255 219.672 238.622 220.381C239.002 221.09 239.192 221.933 239.192 222.908C239.192 223.06 239.186 223.206 239.173 223.345C239.173 223.472 239.16 223.605 239.135 223.744H231.003V222.262H237.748L237.254 222.851C237.254 221.812 237.02 221.021 236.551 220.476C236.082 219.931 235.43 219.659 234.594 219.659C233.695 219.659 232.979 219.969 232.447 220.59C231.928 221.198 231.668 222.047 231.668 223.136C231.668 224.238 231.928 225.099 232.447 225.72C232.979 226.341 233.714 226.651 234.651 226.651C235.221 226.651 235.715 226.537 236.133 226.309C236.551 226.068 236.861 225.72 237.064 225.264H238.926C238.609 226.176 238.071 226.892 237.311 227.411C236.564 227.93 235.664 228.19 234.613 228.19ZM241.213 228V218.31H243.094V220.59H243.189V228H241.213ZM247.749 228V221.673C247.749 221.014 247.597 220.533 247.293 220.229C246.989 219.925 246.552 219.773 245.982 219.773C245.45 219.773 244.969 219.9 244.538 220.153C244.12 220.394 243.791 220.736 243.55 221.179C243.31 221.61 243.189 222.123 243.189 222.718L242.942 220.457C243.259 219.735 243.734 219.165 244.367 218.747C245.013 218.329 245.735 218.12 246.533 218.12C247.496 218.12 248.262 218.399 248.832 218.956C249.415 219.513 249.706 220.248 249.706 221.16V228H247.749ZM254.285 228V221.673C254.285 221.014 254.127 220.533 253.81 220.229C253.506 219.925 253.069 219.773 252.499 219.773C251.98 219.773 251.505 219.9 251.074 220.153C250.656 220.394 250.321 220.736 250.067 221.179C249.827 221.61 249.706 222.123 249.706 222.718L249.307 220.457C249.637 219.735 250.131 219.165 250.789 218.747C251.461 218.329 252.208 218.12 253.031 218.12C254.007 218.12 254.786 218.405 255.368 218.975C255.951 219.532 256.242 220.28 256.242 221.217V228H254.285ZM258.098 223.687V221.977H264.805V223.687H258.098ZM271.685 228.171C270.039 228.171 268.721 227.778 267.733 226.993C266.745 226.208 266.169 225.087 266.004 223.63H267.961C268.075 224.58 268.455 225.302 269.101 225.796C269.747 226.29 270.621 226.537 271.723 226.537C272.648 226.537 273.345 226.366 273.813 226.024C274.295 225.682 274.535 225.194 274.535 224.561C274.535 223.991 274.377 223.541 274.06 223.212C273.744 222.87 273.243 222.591 272.559 222.376L270.184 221.616C268.968 221.223 268.075 220.729 267.505 220.134C266.935 219.539 266.65 218.785 266.65 217.873C266.65 217.1 266.84 216.435 267.22 215.878C267.613 215.321 268.158 214.89 268.854 214.586C269.564 214.269 270.387 214.111 271.324 214.111C272.768 214.111 273.921 214.478 274.782 215.213C275.656 215.935 276.157 216.942 276.283 218.234H274.326C274.174 217.373 273.845 216.746 273.338 216.353C272.832 215.948 272.135 215.745 271.248 215.745C270.412 215.745 269.76 215.91 269.291 216.239C268.823 216.568 268.588 217.031 268.588 217.626C268.588 218.107 268.74 218.513 269.044 218.842C269.361 219.159 269.88 219.431 270.602 219.659L273.091 220.457C274.244 220.824 275.093 221.325 275.637 221.958C276.195 222.591 276.473 223.389 276.473 224.352C276.473 225.568 276.055 226.512 275.219 227.183C274.383 227.842 273.205 228.171 271.685 228.171ZM282.726 228.19C281.738 228.19 280.87 227.975 280.123 227.544C279.376 227.101 278.793 226.499 278.375 225.739C277.957 224.966 277.748 224.092 277.748 223.117C277.748 222.129 277.957 221.261 278.375 220.514C278.806 219.767 279.388 219.184 280.123 218.766C280.87 218.335 281.738 218.12 282.726 218.12C283.727 218.12 284.601 218.335 285.348 218.766C286.095 219.184 286.672 219.767 287.077 220.514C287.495 221.261 287.704 222.129 287.704 223.117C287.704 224.092 287.495 224.966 287.077 225.739C286.672 226.499 286.095 227.101 285.348 227.544C284.601 227.975 283.727 228.19 282.726 228.19ZM282.726 226.575C283.321 226.575 283.834 226.429 284.265 226.138C284.708 225.847 285.057 225.441 285.31 224.922C285.563 224.403 285.69 223.795 285.69 223.098C285.69 222.059 285.411 221.242 284.854 220.647C284.309 220.039 283.6 219.735 282.726 219.735C281.865 219.735 281.155 220.039 280.598 220.647C280.053 221.255 279.781 222.072 279.781 223.098C279.781 223.795 279.901 224.403 280.142 224.922C280.395 225.441 280.744 225.847 281.187 226.138C281.643 226.429 282.156 226.575 282.726 226.575ZM289.734 228V214.32H291.71V228H289.734ZM297.258 228L293.306 218.31H295.415L298.645 227.107H297.714L300.906 218.31H302.939L299.006 228H297.258ZM304.41 228V218.31H306.386V228H304.41ZM304.315 216.41V214.187H306.5V216.41H304.315ZM309.16 228V218.31H311.041V220.59H311.136V228H309.16ZM316.038 228V221.768C316.038 221.097 315.867 220.596 315.525 220.267C315.196 219.938 314.702 219.773 314.043 219.773C313.473 219.773 312.967 219.9 312.523 220.153C312.093 220.406 311.751 220.755 311.497 221.198C311.257 221.641 311.136 222.167 311.136 222.775L310.889 220.457C311.206 219.735 311.694 219.165 312.352 218.747C313.011 218.329 313.777 218.12 314.651 218.12C315.69 218.12 316.507 218.411 317.102 218.994C317.698 219.577 317.995 220.349 317.995 221.312V228H316.038ZM324.73 232.085C323.514 232.085 322.507 231.806 321.709 231.249C320.924 230.704 320.449 229.976 320.284 229.064H322.146C322.273 229.482 322.552 229.811 322.982 230.052C323.426 230.293 324.015 230.413 324.749 230.413C325.699 230.413 326.409 230.179 326.877 229.71C327.346 229.241 327.58 228.545 327.58 227.62V225.53L327.751 225.568C327.561 226.303 327.15 226.885 326.516 227.316C325.883 227.734 325.123 227.943 324.236 227.943C323.388 227.943 322.64 227.74 321.994 227.335C321.348 226.93 320.848 226.366 320.493 225.644C320.139 224.909 319.961 224.054 319.961 223.079C319.961 222.091 320.145 221.223 320.512 220.476C320.88 219.729 321.393 219.152 322.051 218.747C322.723 218.342 323.502 218.139 324.388 218.139C325.3 218.139 326.054 218.361 326.649 218.804C327.257 219.235 327.644 219.849 327.808 220.647L327.656 220.666V218.31H329.537V227.601C329.537 228.994 329.107 230.09 328.245 230.888C327.397 231.686 326.225 232.085 324.73 232.085ZM324.825 226.347C325.674 226.347 326.352 226.049 326.858 225.454C327.378 224.859 327.637 224.042 327.637 223.003C327.637 221.99 327.378 221.192 326.858 220.609C326.352 220.026 325.668 219.735 324.806 219.735C323.945 219.735 323.261 220.033 322.754 220.628C322.248 221.211 321.994 222.021 321.994 223.06C321.994 224.073 322.248 224.878 322.754 225.473C323.274 226.056 323.964 226.347 324.825 226.347ZM339.903 228V215.973H335.286V214.32H346.534V215.973H341.917V228H339.903ZM352.441 228C352.377 227.759 352.333 227.493 352.308 227.202C352.295 226.911 352.289 226.556 352.289 226.138H352.194V221.521C352.194 220.9 352.035 220.438 351.719 220.134C351.415 219.817 350.927 219.659 350.256 219.659C349.61 219.659 349.09 219.786 348.698 220.039C348.318 220.292 348.096 220.653 348.033 221.122H346.152C346.24 220.21 346.652 219.482 347.387 218.937C348.121 218.392 349.103 218.12 350.332 218.12C351.598 218.12 352.548 218.418 353.182 219.013C353.815 219.596 354.132 220.457 354.132 221.597V226.138C354.132 226.429 354.151 226.727 354.189 227.031C354.227 227.335 354.284 227.658 354.36 228H352.441ZM349.097 228.19C348.109 228.19 347.323 227.949 346.741 227.468C346.158 226.974 345.867 226.309 345.867 225.473C345.867 224.612 346.171 223.934 346.779 223.44C347.399 222.933 348.286 222.591 349.439 222.414L352.631 221.901V223.288L349.743 223.744C349.097 223.845 348.609 224.016 348.28 224.257C347.963 224.498 347.805 224.846 347.805 225.302C347.805 225.745 347.95 226.081 348.242 226.309C348.546 226.524 348.983 226.632 349.553 226.632C350.313 226.632 350.94 226.448 351.434 226.081C351.94 225.714 352.194 225.251 352.194 224.694L352.441 226.1C352.213 226.771 351.807 227.291 351.225 227.658C350.642 228.013 349.933 228.19 349.097 228.19ZM360.194 228.19C358.927 228.19 357.92 227.911 357.173 227.354C356.425 226.797 356.001 226.011 355.9 224.998H357.724C357.812 225.555 358.066 225.986 358.484 226.29C358.914 226.581 359.497 226.727 360.232 226.727C360.878 226.727 361.372 226.613 361.714 226.385C362.056 226.157 362.227 225.834 362.227 225.416C362.227 225.112 362.125 224.859 361.923 224.656C361.733 224.441 361.353 224.263 360.783 224.124L359.225 223.763C358.249 223.522 357.521 223.168 357.04 222.699C356.571 222.218 356.337 221.629 356.337 220.932C356.337 220.058 356.66 219.374 357.306 218.88C357.964 218.373 358.864 218.12 360.004 218.12C361.131 218.12 362.037 218.373 362.721 218.88C363.417 219.387 363.81 220.096 363.899 221.008H362.075C361.999 220.552 361.777 220.204 361.41 219.963C361.055 219.71 360.567 219.583 359.947 219.583C359.364 219.583 358.914 219.691 358.598 219.906C358.294 220.109 358.142 220.394 358.142 220.761C358.142 221.065 358.256 221.318 358.484 221.521C358.724 221.724 359.117 221.895 359.662 222.034L361.258 222.433C362.182 222.661 362.879 223.035 363.348 223.554C363.816 224.061 364.051 224.675 364.051 225.397C364.051 226.271 363.709 226.955 363.025 227.449C362.353 227.943 361.41 228.19 360.194 228.19ZM365.882 228V214.073H367.858V228H365.882ZM372.171 228L367.402 222.965L372.019 218.31H374.508L369.264 223.402L369.359 222.509L374.698 228H372.171Z" fill="#848EA0"/>
<path d="M158 222.281H374.869V223.003H158V222.281Z" fill="#848EA0"/>
<path d="M165.334 305V301.39L165.41 301.01V293.201L166.132 293.41L160.432 301.124L159.653 300.383H169.039V302.036H158.589V300.497L165.41 291.32H167.405V305H165.334ZM170.316 300.687V298.977H177.023V300.687H170.316ZM187.383 305V292.973H182.766V291.32H194.014V292.973H189.397V305H187.383ZM193.862 305V295.31H195.743V297.723H195.838V305H193.862ZM195.838 299.946L195.591 297.647C195.819 296.824 196.211 296.197 196.769 295.766C197.326 295.335 197.991 295.12 198.764 295.12C199.055 295.12 199.258 295.145 199.372 295.196V297.058C199.308 297.033 199.22 297.02 199.106 297.02C198.992 297.007 198.852 297.001 198.688 297.001C197.738 297.001 197.022 297.248 196.541 297.742C196.072 298.236 195.838 298.971 195.838 299.946ZM205.037 305.19C204.061 305.19 203.2 304.975 202.453 304.544C201.718 304.113 201.142 303.518 200.724 302.758C200.306 301.998 200.097 301.124 200.097 300.136C200.097 299.135 200.299 298.261 200.705 297.514C201.123 296.754 201.705 296.165 202.453 295.747C203.2 295.329 204.055 295.12 205.018 295.12C205.955 295.12 206.766 295.323 207.45 295.728C208.146 296.121 208.678 296.672 209.046 297.381C209.426 298.09 209.616 298.933 209.616 299.908C209.616 300.06 209.609 300.206 209.597 300.345C209.597 300.472 209.584 300.605 209.559 300.744H201.427V299.262H208.172L207.678 299.851C207.678 298.812 207.443 298.021 206.975 297.476C206.506 296.931 205.854 296.659 205.018 296.659C204.118 296.659 203.403 296.969 202.871 297.59C202.351 298.198 202.092 299.047 202.092 300.136C202.092 301.238 202.351 302.099 202.871 302.72C203.403 303.341 204.137 303.651 205.075 303.651C205.645 303.651 206.139 303.537 206.557 303.309C206.975 303.068 207.285 302.72 207.488 302.264H209.35C209.033 303.176 208.495 303.892 207.735 304.411C206.987 304.93 206.088 305.19 205.037 305.19ZM211.637 305V295.31H213.518V297.59H213.613V305H211.637ZM218.515 305V298.768C218.515 298.097 218.344 297.596 218.002 297.267C217.673 296.938 217.179 296.773 216.52 296.773C215.95 296.773 215.443 296.9 215 297.153C214.569 297.406 214.227 297.755 213.974 298.198C213.733 298.641 213.613 299.167 213.613 299.775L213.366 297.457C213.683 296.735 214.17 296.165 214.829 295.747C215.488 295.329 216.254 295.12 217.128 295.12C218.167 295.12 218.984 295.411 219.579 295.994C220.174 296.577 220.472 297.349 220.472 298.312V305H218.515ZM230.151 305V302.777L230.341 302.834C230.139 303.556 229.721 304.132 229.087 304.563C228.454 304.981 227.694 305.19 226.807 305.19C225.933 305.19 225.167 304.981 224.508 304.563C223.862 304.145 223.356 303.562 222.988 302.815C222.634 302.068 222.456 301.194 222.456 300.193C222.456 299.18 222.64 298.293 223.007 297.533C223.375 296.773 223.888 296.184 224.546 295.766C225.205 295.348 225.978 295.139 226.864 295.139C227.789 295.139 228.549 295.361 229.144 295.804C229.752 296.235 230.151 296.843 230.341 297.628L230.075 297.666V291.32H232.032V305H230.151ZM227.301 303.537C228.175 303.537 228.866 303.239 229.372 302.644C229.879 302.036 230.132 301.2 230.132 300.136C230.132 299.097 229.873 298.28 229.353 297.685C228.847 297.077 228.156 296.773 227.282 296.773C226.421 296.773 225.737 297.077 225.23 297.685C224.736 298.28 224.489 299.116 224.489 300.193C224.489 301.244 224.736 302.068 225.23 302.663C225.737 303.246 226.427 303.537 227.301 303.537ZM238.308 305.19C237.041 305.19 236.034 304.911 235.287 304.354C234.539 303.797 234.115 303.011 234.014 301.998H235.838C235.926 302.555 236.18 302.986 236.598 303.29C237.028 303.581 237.611 303.727 238.346 303.727C238.992 303.727 239.486 303.613 239.828 303.385C240.17 303.157 240.341 302.834 240.341 302.416C240.341 302.112 240.239 301.859 240.037 301.656C239.847 301.441 239.467 301.263 238.897 301.124L237.339 300.763C236.363 300.522 235.635 300.168 235.154 299.699C234.685 299.218 234.451 298.629 234.451 297.932C234.451 297.058 234.774 296.374 235.42 295.88C236.078 295.373 236.978 295.12 238.118 295.12C239.245 295.12 240.151 295.373 240.835 295.88C241.531 296.387 241.924 297.096 242.013 298.008H240.189C240.113 297.552 239.891 297.204 239.524 296.963C239.169 296.71 238.681 296.583 238.061 296.583C237.478 296.583 237.028 296.691 236.712 296.906C236.408 297.109 236.256 297.394 236.256 297.761C236.256 298.065 236.37 298.318 236.598 298.521C236.838 298.724 237.231 298.895 237.776 299.034L239.372 299.433C240.296 299.661 240.993 300.035 241.462 300.554C241.93 301.061 242.165 301.675 242.165 302.397C242.165 303.271 241.823 303.955 241.139 304.449C240.467 304.943 239.524 305.19 238.308 305.19ZM246.965 305L252.114 291.32H253.862L248.941 305H246.965ZM257.548 305L252.627 291.32H254.47L259.638 305H257.548ZM249.568 299.547H256.902V301.219H249.568V299.547ZM262.486 305L259.522 295.31H261.555L263.569 303.1H263.284L265.735 295.31H267.445L269.896 303.1H269.63L271.625 295.31H273.563L270.599 305H268.87L266.419 297.343H266.704L264.215 305H262.486ZM281.061 305C280.998 304.759 280.953 304.493 280.928 304.202C280.915 303.911 280.909 303.556 280.909 303.138H280.814V298.521C280.814 297.9 280.656 297.438 280.339 297.134C280.035 296.817 279.547 296.659 278.876 296.659C278.23 296.659 277.711 296.786 277.318 297.039C276.938 297.292 276.716 297.653 276.653 298.122H274.772C274.861 297.21 275.272 296.482 276.007 295.937C276.742 295.392 277.723 295.12 278.952 295.12C280.219 295.12 281.169 295.418 281.802 296.013C282.435 296.596 282.752 297.457 282.752 298.597V303.138C282.752 303.429 282.771 303.727 282.809 304.031C282.847 304.335 282.904 304.658 282.98 305H281.061ZM277.717 305.19C276.729 305.19 275.944 304.949 275.361 304.468C274.778 303.974 274.487 303.309 274.487 302.473C274.487 301.612 274.791 300.934 275.399 300.44C276.02 299.933 276.906 299.591 278.059 299.414L281.251 298.901V300.288L278.363 300.744C277.717 300.845 277.229 301.016 276.9 301.257C276.583 301.498 276.425 301.846 276.425 302.302C276.425 302.745 276.571 303.081 276.862 303.309C277.166 303.524 277.603 303.632 278.173 303.632C278.933 303.632 279.56 303.448 280.054 303.081C280.561 302.714 280.814 302.251 280.814 301.694L281.061 303.1C280.833 303.771 280.428 304.291 279.845 304.658C279.262 305.013 278.553 305.19 277.717 305.19ZM285.429 305V295.31H287.31V297.723H287.405V305H285.429ZM287.405 299.946L287.158 297.647C287.386 296.824 287.779 296.197 288.336 295.766C288.893 295.335 289.558 295.12 290.331 295.12C290.622 295.12 290.825 295.145 290.939 295.196V297.058C290.876 297.033 290.787 297.02 290.673 297.02C290.559 297.007 290.42 297.001 290.255 297.001C289.305 297.001 288.589 297.248 288.108 297.742C287.639 298.236 287.405 298.971 287.405 299.946ZM296.604 305.19C295.629 305.19 294.767 304.975 294.02 304.544C293.285 304.113 292.709 303.518 292.291 302.758C291.873 301.998 291.664 301.124 291.664 300.136C291.664 299.135 291.867 298.261 292.272 297.514C292.69 296.754 293.273 296.165 294.02 295.747C294.767 295.329 295.622 295.12 296.585 295.12C297.522 295.12 298.333 295.323 299.017 295.728C299.714 296.121 300.246 296.672 300.613 297.381C300.993 298.09 301.183 298.933 301.183 299.908C301.183 300.06 301.177 300.206 301.164 300.345C301.164 300.472 301.151 300.605 301.126 300.744H292.994V299.262H299.739L299.245 299.851C299.245 298.812 299.011 298.021 298.542 297.476C298.073 296.931 297.421 296.659 296.585 296.659C295.686 296.659 294.97 296.969 294.438 297.59C293.919 298.198 293.659 299.047 293.659 300.136C293.659 301.238 293.919 302.099 294.438 302.72C294.97 303.341 295.705 303.651 296.642 303.651C297.212 303.651 297.706 303.537 298.124 303.309C298.542 303.068 298.852 302.72 299.055 302.264H300.917C300.6 303.176 300.062 303.892 299.302 304.411C298.555 304.93 297.655 305.19 296.604 305.19ZM303.204 305V295.31H305.085V297.59H305.18V305H303.204ZM310.082 305V298.768C310.082 298.097 309.911 297.596 309.569 297.267C309.24 296.938 308.746 296.773 308.087 296.773C307.517 296.773 307.011 296.9 306.567 297.153C306.137 297.406 305.795 297.755 305.541 298.198C305.301 298.641 305.18 299.167 305.18 299.775L304.933 297.457C305.25 296.735 305.738 296.165 306.396 295.747C307.055 295.329 307.821 295.12 308.695 295.12C309.734 295.12 310.551 295.411 311.146 295.994C311.742 296.577 312.039 297.349 312.039 298.312V305H310.082ZM318.907 305.19C317.932 305.19 317.07 304.975 316.323 304.544C315.588 304.113 315.012 303.518 314.594 302.758C314.176 301.998 313.967 301.124 313.967 300.136C313.967 299.135 314.17 298.261 314.575 297.514C314.993 296.754 315.576 296.165 316.323 295.747C317.07 295.329 317.925 295.12 318.888 295.12C319.825 295.12 320.636 295.323 321.32 295.728C322.017 296.121 322.549 296.672 322.916 297.381C323.296 298.09 323.486 298.933 323.486 299.908C323.486 300.06 323.48 300.206 323.467 300.345C323.467 300.472 323.454 300.605 323.429 300.744H315.297V299.262H322.042L321.548 299.851C321.548 298.812 321.314 298.021 320.845 297.476C320.376 296.931 319.724 296.659 318.888 296.659C317.989 296.659 317.273 296.969 316.741 297.59C316.222 298.198 315.962 299.047 315.962 300.136C315.962 301.238 316.222 302.099 316.741 302.72C317.273 303.341 318.008 303.651 318.945 303.651C319.515 303.651 320.009 303.537 320.427 303.309C320.845 303.068 321.155 302.72 321.358 302.264H323.22C322.903 303.176 322.365 303.892 321.605 304.411C320.858 304.93 319.958 305.19 318.907 305.19ZM329.04 305.19C327.774 305.19 326.767 304.911 326.019 304.354C325.272 303.797 324.848 303.011 324.746 301.998H326.57C326.659 302.555 326.912 302.986 327.33 303.29C327.761 303.581 328.344 303.727 329.078 303.727C329.724 303.727 330.218 303.613 330.56 303.385C330.902 303.157 331.073 302.834 331.073 302.416C331.073 302.112 330.972 301.859 330.769 301.656C330.579 301.441 330.199 301.263 329.629 301.124L328.071 300.763C327.096 300.522 326.368 300.168 325.886 299.699C325.418 299.218 325.183 298.629 325.183 297.932C325.183 297.058 325.506 296.374 326.152 295.88C326.811 295.373 327.71 295.12 328.85 295.12C329.978 295.12 330.883 295.373 331.567 295.88C332.264 296.387 332.657 297.096 332.745 298.008H330.921C330.845 297.552 330.624 297.204 330.256 296.963C329.902 296.71 329.414 296.583 328.793 296.583C328.211 296.583 327.761 296.691 327.444 296.906C327.14 297.109 326.988 297.394 326.988 297.761C326.988 298.065 327.102 298.318 327.33 298.521C327.571 298.724 327.964 298.895 328.508 299.034L330.104 299.433C331.029 299.661 331.726 300.035 332.194 300.554C332.663 301.061 332.897 301.675 332.897 302.397C332.897 303.271 332.555 303.955 331.871 304.449C331.2 304.943 330.256 305.19 329.04 305.19ZM338.392 305.19C337.125 305.19 336.118 304.911 335.371 304.354C334.623 303.797 334.199 303.011 334.098 301.998H335.922C336.01 302.555 336.264 302.986 336.682 303.29C337.112 303.581 337.695 303.727 338.43 303.727C339.076 303.727 339.57 303.613 339.912 303.385C340.254 303.157 340.425 302.834 340.425 302.416C340.425 302.112 340.323 301.859 340.121 301.656C339.931 301.441 339.551 301.263 338.981 301.124L337.423 300.763C336.447 300.522 335.719 300.168 335.238 299.699C334.769 299.218 334.535 298.629 334.535 297.932C334.535 297.058 334.858 296.374 335.504 295.88C336.162 295.373 337.062 295.12 338.202 295.12C339.329 295.12 340.235 295.373 340.919 295.88C341.615 296.387 342.008 297.096 342.097 298.008H340.273C340.197 297.552 339.975 297.204 339.608 296.963C339.253 296.71 338.765 296.583 338.145 296.583C337.562 296.583 337.112 296.691 336.796 296.906C336.492 297.109 336.34 297.394 336.34 297.761C336.34 298.065 336.454 298.318 336.682 298.521C336.922 298.724 337.315 298.895 337.86 299.034L339.456 299.433C340.38 299.661 341.077 300.035 341.546 300.554C342.014 301.061 342.249 301.675 342.249 302.397C342.249 303.271 341.907 303.955 341.223 304.449C340.551 304.943 339.608 305.19 338.392 305.19ZM354.174 305.19C352.768 305.19 351.546 304.892 350.507 304.297C349.469 303.689 348.664 302.853 348.094 301.789C347.537 300.712 347.258 299.484 347.258 298.103C347.258 296.735 347.543 295.525 348.113 294.474C348.683 293.423 349.469 292.606 350.469 292.023C351.483 291.428 352.635 291.13 353.927 291.13C355.245 291.13 356.404 291.428 357.404 292.023C358.405 292.606 359.19 293.423 359.76 294.474C360.343 295.525 360.634 296.741 360.634 298.122C360.634 299.097 360.47 300.003 360.14 300.839C359.824 301.675 359.336 302.384 358.677 302.967C358.031 303.55 357.214 303.955 356.226 304.183L354.174 305.19ZM353.927 303.575C354.865 303.575 355.675 303.341 356.359 302.872C357.056 302.403 357.601 301.757 357.993 300.934C358.386 300.111 358.582 299.161 358.582 298.084C358.582 297.045 358.386 296.133 357.993 295.348C357.601 294.55 357.056 293.936 356.359 293.505C355.663 293.062 354.852 292.84 353.927 292.84C353.003 292.84 352.192 293.062 351.495 293.505C350.811 293.936 350.273 294.544 349.88 295.329C349.5 296.114 349.31 297.033 349.31 298.084C349.31 299.173 349.507 300.13 349.899 300.953C350.292 301.764 350.83 302.403 351.514 302.872C352.211 303.341 353.015 303.575 353.927 303.575ZM354.174 305.19L353.946 303.822L361.204 303.347V305C360.419 305 359.741 305.006 359.171 305.019C358.614 305.044 358.088 305.07 357.594 305.095C357.113 305.12 356.606 305.139 356.074 305.152C355.542 305.177 354.909 305.19 354.174 305.19ZM366.253 305.19C365.607 305.19 365.037 305.057 364.543 304.791C364.049 304.512 363.663 304.132 363.384 303.651C363.118 303.17 362.985 302.619 362.985 301.998V295.31H364.961V301.542C364.961 302.213 365.126 302.714 365.455 303.043C365.784 303.372 366.253 303.537 366.861 303.537C367.406 303.537 367.887 303.41 368.305 303.157C368.736 302.904 369.071 302.555 369.312 302.112C369.565 301.656 369.692 301.13 369.692 300.535L369.939 302.853C369.622 303.562 369.135 304.132 368.476 304.563C367.83 304.981 367.089 305.19 366.253 305.19ZM369.768 305V302.72H369.692V295.31H371.649V305H369.768ZM374.232 305V295.31H376.208V305H374.232ZM374.137 293.41V291.187H376.322V293.41H374.137ZM378.285 305V303.613L384.004 296.089L384.574 296.887H378.456V295.31H385.923V296.697L380.223 304.183L379.672 303.423H386.075V305H378.285ZM395.882 305V292.973H391.265V291.32H402.513V292.973H397.896V305H395.882ZM406.596 305.19C405.621 305.19 404.76 304.975 404.012 304.544C403.278 304.113 402.701 303.518 402.283 302.758C401.865 301.998 401.656 301.124 401.656 300.136C401.656 299.135 401.859 298.261 402.264 297.514C402.682 296.754 403.265 296.165 404.012 295.747C404.76 295.329 405.615 295.12 406.577 295.12C407.515 295.12 408.325 295.323 409.009 295.728C409.706 296.121 410.238 296.672 410.605 297.381C410.985 298.09 411.175 298.933 411.175 299.908C411.175 300.06 411.169 300.206 411.156 300.345C411.156 300.472 411.144 300.605 411.118 300.744H402.986V299.262H409.731L409.237 299.851C409.237 298.812 409.003 298.021 408.534 297.476C408.066 296.931 407.413 296.659 406.577 296.659C405.678 296.659 404.962 296.969 404.43 297.59C403.911 298.198 403.651 299.047 403.651 300.136C403.651 301.238 403.911 302.099 404.43 302.72C404.962 303.341 405.697 303.651 406.634 303.651C407.204 303.651 407.698 303.537 408.116 303.309C408.534 303.068 408.845 302.72 409.047 302.264H410.909C410.593 303.176 410.054 303.892 409.294 304.411C408.547 304.93 407.648 305.19 406.596 305.19ZM416.73 305.19C415.463 305.19 414.456 304.911 413.709 304.354C412.961 303.797 412.537 303.011 412.436 301.998H414.26C414.348 302.555 414.602 302.986 415.02 303.29C415.45 303.581 416.033 303.727 416.768 303.727C417.414 303.727 417.908 303.613 418.25 303.385C418.592 303.157 418.763 302.834 418.763 302.416C418.763 302.112 418.661 301.859 418.459 301.656C418.269 301.441 417.889 301.263 417.319 301.124L415.761 300.763C414.785 300.522 414.057 300.168 413.576 299.699C413.107 299.218 412.873 298.629 412.873 297.932C412.873 297.058 413.196 296.374 413.842 295.88C414.5 295.373 415.4 295.12 416.54 295.12C417.667 295.12 418.573 295.373 419.257 295.88C419.953 296.387 420.346 297.096 420.435 298.008H418.611C418.535 297.552 418.313 297.204 417.946 296.963C417.591 296.71 417.103 296.583 416.483 296.583C415.9 296.583 415.45 296.691 415.134 296.906C414.83 297.109 414.678 297.394 414.678 297.761C414.678 298.065 414.792 298.318 415.02 298.521C415.26 298.724 415.653 298.895 416.198 299.034L417.794 299.433C418.718 299.661 419.415 300.035 419.884 300.554C420.352 301.061 420.587 301.675 420.587 302.397C420.587 303.271 420.245 303.955 419.561 304.449C418.889 304.943 417.946 305.19 416.73 305.19ZM426.523 305.19C425.395 305.19 424.566 304.93 424.034 304.411C423.514 303.879 423.255 303.1 423.255 302.074V293.087L425.212 292.346V302.093C425.212 302.6 425.345 302.973 425.611 303.214C425.877 303.455 426.307 303.575 426.903 303.575C427.131 303.575 427.333 303.556 427.511 303.518C427.688 303.48 427.84 303.436 427.967 303.385V304.981C427.827 305.044 427.631 305.095 427.378 305.133C427.124 305.171 426.839 305.19 426.523 305.19ZM421.317 296.887V295.31H427.967V296.887H421.317Z" fill="#0B1928"/>
</g>
<defs>
<filter id="filter0_ddd_55_852" x="0" y="0" width="623" height="509" filterUnits="userSpaceOnUse" color-interpolation-filters="sRGB">
<feFlood flood-opacity="0" result="BackgroundImageFix"/>
<feColorMatrix in="SourceAlpha" type="matrix" values="0 0 0 0 0 0 0 0 0 0 0 0 0 0 0 0 0 0 127 0" result="hardAlpha"/>
<feOffset dy="11"/>
<feGaussianBlur stdDeviation="12"/>
<feColorMatrix type="matrix" values="0 0 0 0 0 0 0 0 0 0 0 0 0 0 0 0 0 0 0.02 0"/>
<feBlend mode="normal" in2="BackgroundImageFix" result="effect1_dropShadow_55_852"/>
<feColorMatrix in="SourceAlpha" type="matrix" values="0 0 0 0 0 0 0 0 0 0 0 0 0 0 0 0 0 0 127 0" result="hardAlpha"/>
<feOffset dy="44"/>
<feGaussianBlur stdDeviation="22"/>
<feColorMatrix type="matrix" values="0 0 0 0 0 0 0 0 0 0 0 0 0 0 0 0 0 0 0.02 0"/>
<feBlend mode="normal" in2="effect1_dropShadow_55_852" result="effect2_dropShadow_55_852"/>
<feColorMatrix in="SourceAlpha" type="matrix" values="0 0 0 0 0 0 0 0 0 0 0 0 0 0 0 0 0 0 127 0" result="hardAlpha"/>
<feOffset dy="100"/>
<feGaussianBlur stdDeviation="30"/>
<feColorMatrix type="matrix" values="0 0 0 0 0 0 0 0 0 0 0 0 0 0 0 0 0 0 0.01 0"/>
<feBlend mode="normal" in2="effect2_dropShadow_55_852" result="effect3_dropShadow_55_852"/>
<feBlend mode="normal" in="SourceGraphic" in2="effect3_dropShadow_55_852" result="shape"/>
</filter>
</defs>
</svg>
