<svg width="16" height="15" viewBox="0 0 16 15" fill="none" xmlns="http://www.w3.org/2000/svg">
<path d="M6.84545 0.780956L6.32815 2.84574C6.05997 3.91738 5.51754 4.8954 4.75735 5.6779C3.99717 6.4604 3.04707 7.01876 2.00599 7.29481L5.05447e-05 7.82726L2.00599 8.35974C3.04718 8.63357 3.9977 9.19047 4.75809 9.97213C5.51848 10.7538 6.06074 11.7315 6.32815 12.8029L6.84545 14.8677L7.35699 12.8029C7.6244 11.7315 8.16667 10.7538 8.92706 9.97213C9.68744 9.19047 10.638 8.63357 11.6792 8.35974L13.6851 7.82726L11.6792 7.29481C10.6381 7.01876 9.68798 6.4604 8.92779 5.6779C8.16761 4.8954 7.62517 3.91738 7.35699 2.84574L6.84545 0.780956Z" fill="white"/>
<path d="M12.7884 0L12.6102 0.692197C12.521 1.05227 12.3395 1.38111 12.0848 1.64439C11.83 1.90767 11.5113 2.09576 11.1618 2.18904L10.4836 2.36652L11.1618 2.544C11.5113 2.63728 11.83 2.82537 12.0848 3.08865C12.3395 3.35193 12.521 3.68078 12.6102 4.04085L12.7884 4.73304L12.9608 4.04085C13.0511 3.68033 13.2336 3.35133 13.4893 3.08808C13.7451 2.82482 14.0647 2.63693 14.4149 2.544L15.0874 2.36652L14.4149 2.18904C14.0647 2.09611 13.7451 1.90826 13.4893 1.645C13.2336 1.38175 13.0511 1.05271 12.9608 0.692197L12.7884 0Z" fill="white"/>
</svg>
